<svg id="Layer_1" data-name="Layer 1" xmlns="http://www.w3.org/2000/svg" viewBox="0 0 123.72 123.71"><defs><style>.cls-1{fill:#f36b21;}.cls-2{fill:#924520;}</style></defs><title>basketballball</title><circle class="cls-1" cx="61.86" cy="61.86" r="61.86"/><rect class="cls-2" x="59.94" width="3.84" height="123.71"/><rect class="cls-2" y="59.94" width="123.72" height="3.84"/><path class="cls-2" d="M226.43,440c-4.73-7.57-6.19-15.48-6.09-17.93l-3.51,3.06c-0.17,3.74,1.54,9.24,6.34,16.91,4.33,6.93,9,18.82,9,28.58H236C236,460,231.2,447.61,226.43,440Z" transform="translate(-197.31 -408.36)"/><path class="cls-2" d="M232.16,470.77c0.11,2.45-1.25,10.37-6,17.93s-9.36,16-9.36,26.62l3.64,3.16c0-9.76,4.65-20.82,9-27.75,4.8-7.67,6.72-16.39,6.56-20.13Z" transform="translate(-197.31 -408.36)"/><path class="cls-2" d="M291.51,440c4.73-7.57,6.12-15.85,6-18.3l3.44,2.92c0.17,3.74-1.4,9.74-6.19,17.41-4.33,6.93-9,18.82-9,28.58h-3.84C281.94,460,286.74,447.61,291.51,440Z" transform="translate(-197.31 -408.36)"/><path class="cls-2" d="M285.78,470.77c-0.11,2.45,1.25,10.37,6,17.93S301,505.21,301,515.78l-3.52,3c0-9.76-4.65-21.12-9-28-4.8-7.67-6.72-16.39-6.56-20.13Z" transform="translate(-197.31 -408.36)"/></svg>