<?xml version="1.0" encoding="utf-8"?>
<!-- Generator: Adobe Illustrator 19.2.1, SVG Export Plug-In . SVG Version: 6.00 Build 0)  -->
<svg version="1.1" id="Layer_1" xmlns="http://www.w3.org/2000/svg" xmlns:xlink="http://www.w3.org/1999/xlink" x="0px" y="0px"
	 viewBox="0 0 236.6 169.5" style="enable-background:new 0 0 236.6 169.5;" xml:space="preserve">
<style type="text/css">
	.st0{fill:#35404F;}
	.st1{fill:#B4E2E7;}
	.st2{fill:#FFFFFF;}
	.st3{fill:#152C35;}
	.st4{fill:#FCFDFD;}
	.st5{fill:#E0E3DE;}
	.st6{fill:#F26327;}
	.st7{fill:#3D5054;}
	.st8{fill:#1C2C39;}
	.st9{fill:#FFDA86;}
	.st10{fill:#4D4F5C;}
	.st11{fill:#72CCD4;}
	.st12{fill:#FFD77B;}
	.st13{fill:#47505B;}
</style>
<title>bigdata</title>
<circle class="st0" cx="115.4" cy="84.8" r="84.8"/>
<rect x="67.5" y="43.3" class="st1" width="95.3" height="67.1"/>
<rect x="72.2" y="47.4" class="st2" width="86" height="55"/>
<path class="st3" d="M160.5,36.4h-91c-4.7,0.1-8.4,4-8.3,8.7v60.4c0,4.7,3.6,8.9,8.3,8.9h91c4.8-0.2,8.6-4.1,8.7-8.9V45.1
	C169.1,40.4,165.2,36.5,160.5,36.4z M163.2,107.4h-96v-64h96V107.4z"/>
<path class="st4" d="M129.9,128.2H141v4.5H89.1v-4.5h11.2c1.6-1.8,2.8-3.8,3.5-6.1c0,0,0.7-2.5,1.9-2.6c0.6,0,5,0,9.3,0s8.7,0,9.3,0
	c1.3,0.1,1.9,2.6,1.9,2.6C127,124.3,128.2,126.4,129.9,128.2z"/>
<path class="st5" d="M129.9,128.2c-1.6-1.8-2.8-3.8-3.5-6.1c0,0-0.7-2.5-1.9-2.6c-0.6,0-5,0-9.3,0h-6.5c5.4,3.8,10.4,8.2,14.8,13.2
	H141v-4.5L129.9,128.2L129.9,128.2z"/>
<rect x="72.2" y="47.4" class="st6" width="30" height="11"/>
<rect x="72.2" y="58.4" class="st7" width="30" height="44"/>
<rect x="77.2" y="63.4" class="st8" width="20" height="9"/>
<rect x="77.2" y="78.4" class="st8" width="20" height="9"/>
<rect x="77.2" y="92.4" class="st8" width="20" height="5"/>
<rect x="114.2" y="59.4" class="st9" width="37" height="3"/>
<rect x="114.2" y="67.4" class="st6" width="37" height="3"/>
<rect x="114.2" y="75.4" class="st9" width="37" height="3"/>
<rect x="114.2" y="83.4" class="st10" width="37" height="3"/>
<rect x="114.2" y="91.4" class="st11" width="37" height="3"/>
<rect y="117.1" class="st2" width="9.4" height="16.6"/>
<rect x="9.4" y="127.6" class="st6" width="9.4" height="6.1"/>
<rect x="18.8" y="116.5" class="st12" width="9.4" height="17.2"/>
<rect x="28.2" y="99.3" class="st13" width="9.4" height="34.3"/>
<rect x="37.7" y="87.2" class="st8" width="9.4" height="46.5"/>
<rect x="47.1" y="113.8" class="st12" width="9.4" height="19.9"/>
<rect x="56.5" y="125.4" class="st6" width="9.4" height="8.3"/>
<rect x="227.2" y="117.1" class="st2" width="9.4" height="16.6"/>
<rect x="217.8" y="127.6" class="st6" width="9.4" height="6.1"/>
<rect x="208.4" y="116.5" class="st12" width="9.4" height="17.2"/>
<rect x="199" y="99.3" class="st13" width="9.4" height="34.3"/>
<rect x="189.6" y="87.2" class="st8" width="9.4" height="46.5"/>
<rect x="180.2" y="113.8" class="st12" width="9.4" height="19.9"/>
<rect x="170.8" y="125.4" class="st6" width="9.4" height="8.3"/>
</svg>
