<svg xmlns="http://www.w3.org/2000/svg" xmlns:xlink="http://www.w3.org/1999/xlink" viewBox="0 0 230.63 201.38"><defs><style>.cls-1{isolation:isolate;}.cls-2{fill:#35404f;}.cls-3{fill:#152c35;}.cls-4{fill:#42515b;}.cls-5{fill:#42505b;}.cls-6{fill:#fff;}.cls-7{fill:#f58560;}.cls-8{fill:#72ccd4;}.cls-9{fill:#ffd57b;}.cls-10{fill:#fdba52;}.cls-11{mask:url(#mask);}.cls-12{opacity:0.6;mix-blend-mode:overlay;fill:url(#linear-gradient);}.cls-13{fill:#103754;}.cls-14{filter:url(#luminosity-noclip);}</style><filter id="luminosity-noclip" x="229" y="384.21" width="24.61" height="44.43" filterUnits="userSpaceOnUse" color-interpolation-filters="sRGB"><feFlood flood-color="#fff" result="bg"/><feBlend in="SourceGraphic" in2="bg"/></filter><mask id="mask" x="36.77" y="88.14" width="24.61" height="44.43" maskUnits="userSpaceOnUse"><g class="cls-14"/></mask><linearGradient id="linear-gradient" x1="229" y1="406.43" x2="253.61" y2="406.43" gradientUnits="userSpaceOnUse"><stop offset="0" stop-color="#fff"/><stop offset="1" stop-color="#fff"/></linearGradient></defs><title>computer1</title><g class="cls-1"><g id="Layer_1" data-name="Layer 1"><circle class="cls-2" cx="123.77" cy="104.27" r="84.76"/><path class="cls-3" d="M299,435v0h0c0,0.61.57,1,3.17,1H327.9c2.6,0,3.51,0,3.51-1H299Z" transform="translate(-192.23 -296.07)"/><path class="cls-3" d="M328.07,431.53c-2.32-2.36-2.41-7.53-2.41-7.53H304.05s-0.09,5.17-2.41,7.53-6,4.47.35,4.47h25.73C334,436,330.39,433.89,328.07,431.53Z" transform="translate(-192.23 -296.07)"/><path class="cls-4" d="M316.93,436c1.29-2.82,5.4-5.3,10.51-5.8a6,6,0,0,0,.81,1.14c2.28,2.32,5.82,4.66,0,4.66H316.93Z" transform="translate(-192.23 -296.07)"/><path class="cls-4" d="M313.14,436c-1.29-2.82-5.4-5.3-10.51-5.8a6,6,0,0,1-.81,1.14c-2.28,2.32-5.82,4.66,0,4.66h11.29Z" transform="translate(-192.23 -296.07)"/><path class="cls-3" d="M301.85,435.75c2.17,0,4.34-.05,6.51-0.07l6.51,0,6.51,0,3.25,0,3.26,0-3.26,0-3.25,0-6.51,0-6.51,0C306.19,435.8,304,435.78,301.85,435.75Z" transform="translate(-192.23 -296.07)"/><path class="cls-5" d="M261,420.7c0,1.74,2.2,3.3,3.94,3.3h99.31c1.74,0,3.75-1.57,3.75-3.3V415H261v5.7Z" transform="translate(-192.23 -296.07)"/><path class="cls-3" d="M364.25,351H264.94c-1.74,0-3.94,1.63-3.94,3.37V415H368V354.37C368,352.63,366,351,364.25,351ZM363,410H266V356h97v54Z" transform="translate(-192.23 -296.07)"/><path class="cls-3" d="M261,420.34c0,1.74,2.2,3.66,3.94,3.66h99.31a4.17,4.17,0,0,0,3.75-3.66V415H261v5.34Z" transform="translate(-192.23 -296.07)"/><rect class="cls-6" x="73.96" y="59.4" width="96.63" height="54.99"/><rect class="cls-7" x="79.07" y="63.49" width="89.31" height="4.33"/><rect class="cls-7" x="119.14" y="78.81" width="49.25" height="1.59"/><path class="cls-8" d="M284,367.81c-5.53,0-10,2.91-10,6.47,0,2.7,2.6,5,6.26,6a14.67,14.67,0,0,0,3,4.77,11.88,11.88,0,0,1-1.05-4.39,15.5,15.5,0,0,0,1.79.1c5.53,0,10-2.91,10-6.47S289.49,367.81,284,367.81Z" transform="translate(-192.23 -296.07)"/><rect class="cls-3" x="119.14" y="80.4" width="49.25" height="18.61"/><rect class="cls-7" x="81.77" y="91.93" width="20" height="3"/><rect class="cls-9" x="81.77" y="97.93" width="20" height="3"/><rect class="cls-10" x="81.77" y="103.93" width="20" height="2"/><rect class="cls-10" x="118.77" y="104.93" width="50" height="5"/><rect class="cls-6" x="185.59" y="83.96" width="39.65" height="53.78"/><path class="cls-3" d="M422.86,377a2.62,2.62,0,0,0-2.62-2.62H375.45a2.62,2.62,0,0,0-2.62,2.62v59.68a2.62,2.62,0,0,0,2.62,2.62h44.79a2.62,2.62,0,0,0,2.62-2.62V377Zm-5.15,56.79H377.79V380.11h39.91v53.71Z" transform="translate(-192.23 -296.07)"/><path class="cls-9" d="M397.28,392.56A7.42,7.42,0,0,0,393,406h8.59A7.42,7.42,0,0,0,397.28,392.56Zm0,12.24c-0.43,0-.78-1.29-0.78-2.88s0.34-2.89.78-2.89,0.79,1.29.79,2.89S397.71,404.79,397.28,404.79Z" transform="translate(-192.23 -296.07)"/><path class="cls-9" d="M393,412.18h2a2.86,2.86,0,0,0,4.51,0h2v-5.26H393v5.26Zm0.93-4.15h6.67V409h-6.67V408Zm0,1.89h6.67v0.95h-6.67v-0.95Z" transform="translate(-192.23 -296.07)"/><path class="cls-9" d="M396.34,386.15h1.89v4.44h-1.89v-4.44Zm-9.75,5.19,1.33-1.33,3.14,3.14-1.33,1.34Zm16.91,1.8,3.14-3.14,1.33,1.33-3.14,3.14Z" transform="translate(-192.23 -296.07)"/><rect class="cls-7" x="189.08" y="126.04" width="32.67" height="1.59"/><rect class="cls-3" x="189.08" y="127.06" width="32.67" height="7.9"/><path class="cls-3" d="M253.63,387.71a3.5,3.5,0,0,0-3.5-3.5H232.56a3.5,3.5,0,0,0-3.5,3.5v45a3.5,3.5,0,0,0,3.5,3.5h17.57a3.5,3.5,0,0,0,3.5-3.5v-45Zm-9.71,1.09a0.55,0.55,0,0,1-.55.55h-3.75a0.55,0.55,0,0,1-.55-0.55v0a0.55,0.55,0,0,1,.55-0.55h3.75a0.55,0.55,0,0,1,.55.55v0Zm8,40H231.06V391.64h20.85v37.14Z" transform="translate(-192.23 -296.07)"/><rect class="cls-6" x="38.84" y="95.57" width="20.85" height="37.14"/><g class="cls-11"><path class="cls-12" d="M244.71,384.21h5.65a4,4,0,0,1,3.17,2.56l0.08,40.17a1.61,1.61,0,0,1-1.41,1.7c-1.54-.11-23.2,0-23.2,0" transform="translate(-192.23 -296.07)"/></g><path class="cls-7" d="M235.68,395.45a3.54,3.54,0,0,1,2.51-1V398Zm2.92,0V399l-2.51-2.51A3.55,3.55,0,1,0,238.59,395.43Z" transform="translate(-192.23 -296.07)"/><rect class="cls-7" x="39.93" y="107.81" width="18.66" height="0.91"/><rect class="cls-9" x="39.93" y="114.8" width="18.66" height="0.91"/><rect class="cls-7" x="39.93" y="117.32" width="18.66" height="0.91"/><rect class="cls-8" x="39.93" y="119.85" width="18.66" height="0.91"/><rect class="cls-7" x="39.93" y="122.37" width="18.66" height="0.91"/><rect class="cls-5" x="39.93" y="108.39" width="18.66" height="4.51"/><path id="Path" class="cls-13" d="M395.73,329.41a13.69,13.69,0,0,1-13.64,13.74H339.9a13.75,13.75,0,0,1-2.14-27.31,8.82,8.82,0,0,1-.13-1.49,8.67,8.67,0,0,1,8.64-8.7,8.55,8.55,0,0,1,5.58,2.07c2.68-6.09,6.12-11.65,15.77-11.65,11.7,0,17.25,9.09,17.25,18.69,0,0.4,0,.8,0,1.19A13.72,13.72,0,0,1,395.73,329.41Z" transform="translate(-192.23 -296.07)"/><path class="cls-9" d="M350.45,316.38a4.68,4.68,0,1,1,4.68,4.68A4.68,4.68,0,0,1,350.45,316.38ZM357.38,327a4.31,4.31,0,0,1,.76-5.48,6,6,0,0,0-1-.09h-4a6,6,0,0,0-6,6v4.93l0.34,0.1a27.78,27.78,0,0,0,7.18,1.29v-2.22A5.15,5.15,0,0,1,357.38,327Zm10.68-5.89a4.68,4.68,0,1,0-4.68-4.68A4.68,4.68,0,0,0,368.06,321.06Zm2,0.32h-4a5.91,5.91,0,0,0-1.87.3,4.32,4.32,0,0,1,.54,5.27,5.15,5.15,0,0,1,2.7,4.53v2.21l1.13,0a16.74,16.74,0,0,0,7.11-1.33l0.31-.16h0v-4.86A6,6,0,0,0,370,321.38Zm-11.88,3.45a2.9,2.9,0,1,0,2.9-2.9A2.9,2.9,0,0,0,358.16,324.83Zm4.13,3.1h-2.46a3.72,3.72,0,0,0-3.71,3.72v3.06l0.21,0.06a16.94,16.94,0,0,0,5.05.82,10.39,10.39,0,0,0,4.41-.83l0.19-.1h0v-3A3.72,3.72,0,0,0,362.3,327.93Z" transform="translate(-192.23 -296.07)"/><path id="Path-2" data-name="Path" class="cls-6" d="M250.25,356.44a11.43,11.43,0,0,1-11.39,11.48H203.61a11.48,11.48,0,0,1-1.79-22.81,7.34,7.34,0,0,1-.11-1.24,7.24,7.24,0,0,1,7.22-7.27,7.13,7.13,0,0,1,4.66,1.73c2.24-5.09,5.11-9.73,13.17-9.73,9.77,0,14.41,7.59,14.41,15.61,0,0.34,0,.67,0,1A11.46,11.46,0,0,1,250.25,356.44Z" transform="translate(-192.23 -296.07)"/><path class="cls-8" d="M233.35,353.74h-0.83a0.68,0.68,0,0,1-.57-0.44,6.34,6.34,0,0,0-.28-0.66,0.68,0.68,0,0,1,.09-0.71l0.59-.59a1.06,1.06,0,0,0,0-1.5l-1-1a1.06,1.06,0,0,0-1.5,0l-0.59.59a0.6,0.6,0,0,1-.42.15,0.66,0.66,0,0,1-.29-0.06,6.38,6.38,0,0,0-.66-0.28,0.69,0.69,0,0,1-.44-0.57v-0.83a1.06,1.06,0,0,0-1.06-1.06h-1.35a1.06,1.06,0,0,0-1.06,1.06v0.83a0.68,0.68,0,0,1-.44.57,6.09,6.09,0,0,0-.66.28,0.69,0.69,0,0,1-.29.06,0.61,0.61,0,0,1-.42-0.15l-0.59-.59a1.06,1.06,0,0,0-1.5,0l-1,1a1.06,1.06,0,0,0,0,1.5l0.59,0.59a0.68,0.68,0,0,1,.09.71,6.68,6.68,0,0,0-.27.66,0.68,0.68,0,0,1-.57.44h-0.83a1.06,1.06,0,0,0-1.06,1.06v1.35a1.06,1.06,0,0,0,1.06,1.06H219a0.68,0.68,0,0,1,.57.44,6.62,6.62,0,0,0,.27.66,0.67,0.67,0,0,1-.09.71l-0.59.59a1.06,1.06,0,0,0,0,1.5l1,1a1.06,1.06,0,0,0,1.5,0l0.59-.59a0.6,0.6,0,0,1,.42-0.15,0.67,0.67,0,0,1,.29.06,6.41,6.41,0,0,0,.66.28,0.68,0.68,0,0,1,.44.57v0.83a1.06,1.06,0,0,0,1.06,1.06h1.35a1.06,1.06,0,0,0,1.06-1.06v-0.83a0.68,0.68,0,0,1,.44-0.57,6.62,6.62,0,0,0,.66-0.27,0.68,0.68,0,0,1,.29-0.06,0.6,0.6,0,0,1,.42.15l0.59,0.59a1.06,1.06,0,0,0,1.5,0l1-1a1.06,1.06,0,0,0,0-1.5l-0.59-.59a0.68,0.68,0,0,1-.09-0.71,6.52,6.52,0,0,0,.28-0.66,0.68,0.68,0,0,1,.57-0.44h0.83a1.06,1.06,0,0,0,1.06-1.06V354.8A1.06,1.06,0,0,0,233.35,353.74Zm-4.48,1.74a3.1,3.1,0,1,1-3.1-3.1A3.11,3.11,0,0,1,228.86,355.48Z" transform="translate(-192.23 -296.07)"/><path class="cls-8" d="M219.34,347a0.17,0.17,0,0,1,.12-0.11h0.41a0.71,0.71,0,0,0,.71-0.71v-0.68a0.71,0.71,0,0,0-.71-0.71h-0.41a0.17,0.17,0,0,1-.12-0.1,3.35,3.35,0,0,0-.14-0.35,0.17,0.17,0,0,1,0-.15l0.29-.29a0.71,0.71,0,0,0,0-1l-0.48-.48a0.7,0.7,0,0,0-1,0l-0.29.29a0.14,0.14,0,0,1-.09,0h-0.07l-0.35-.14a0.17,0.17,0,0,1-.1-0.12V342a0.71,0.71,0,0,0-.71-0.71h-0.68a0.71,0.71,0,0,0-.71.71v0.41a0.17,0.17,0,0,1-.1.12l-0.35.14h-0.07a0.14,0.14,0,0,1-.09,0l-0.29-.29a0.7,0.7,0,0,0-1,0l-0.48.48a0.71,0.71,0,0,0,0,1l0.29,0.29a0.17,0.17,0,0,1,0,.15,3.44,3.44,0,0,0-.15.35,0.17,0.17,0,0,1-.12.1h-0.41a0.71,0.71,0,0,0-.71.71v0.68a0.71,0.71,0,0,0,.71.71h0.41a0.17,0.17,0,0,1,.12.1,3.57,3.57,0,0,0,.15.35,0.17,0.17,0,0,1,0,.15l-0.29.3a0.7,0.7,0,0,0,0,1l0.48,0.48a0.71,0.71,0,0,0,1,0l0.29-.29a0.14,0.14,0,0,1,.09,0h0.07l0.35,0.15a0.17,0.17,0,0,1,.1.12v0.41a0.71,0.71,0,0,0,.71.71h0.68a0.71,0.71,0,0,0,.71-0.71v-0.41a0.17,0.17,0,0,1,.1-0.12l0.35-.15h0.07a0.14,0.14,0,0,1,.09,0l0.29,0.29a0.7,0.7,0,0,0,1,0l0.48-.48a0.71,0.71,0,0,0,0-1l-0.29-.3a0.17,0.17,0,0,1,0-.15A3.44,3.44,0,0,0,219.34,347Zm-1.89-1.15a1.37,1.37,0,1,1-1.37-1.37A1.38,1.38,0,0,1,217.46,345.8Z" transform="translate(-192.23 -296.07)"/><path id="MobileMe" class="cls-9" d="M352.11,483.53a13.87,13.87,0,0,1-13.81,13.92H295.56a13.93,13.93,0,0,1-2.17-27.66,8.94,8.94,0,0,1-.13-1.5,8.79,8.79,0,0,1,8.75-8.82,8.66,8.66,0,0,1,5.66,2.09c2.72-6.17,6.2-11.8,16-11.8,11.85,0,17.47,9.21,17.47,18.93,0,0.41,0,.81,0,1.21A13.9,13.9,0,0,1,352.11,483.53Z" transform="translate(-192.23 -296.07)"/><path class="cls-13" d="M332.38,472.69h-7.68v9.91a2.62,2.62,0,0,1-2.62,2.62H310.27v3.32a1.49,1.49,0,0,0,1.49,1.49h11.61l4.85,4.05c0.63,0.53,1,.31.76-0.49L328,490v0h4.35a1.49,1.49,0,0,0,1.49-1.49V474.18A1.49,1.49,0,0,0,332.38,472.69Z" transform="translate(-192.23 -296.07)"/><path class="cls-13" d="M301.47,484.08h2.28v0l-0.95,3.54c-0.13.5,0,.77,0.19,0.77a1,1,0,0,0,.57-0.29l4.85-4.05h13.68a1.49,1.49,0,0,0,1.5-1.49V468.25a1.49,1.49,0,0,0-1.5-1.49H301.47a1.49,1.49,0,0,0-1.49,1.49v14.34A1.49,1.49,0,0,0,301.47,484.08Z" transform="translate(-192.23 -296.07)"/></g></g></svg>