<svg xmlns="http://www.w3.org/2000/svg" viewBox="0 0 98.91 177.08"><defs><style>.cls-1{isolation:isolate;}.cls-2{fill:#b6dec2;}.cls-3{fill:#fff;}.cls-4{fill:#c0282d;}.cls-5{fill:#f2f2f2;}.cls-6{fill:#4d1e33;}.cls-7{fill:#fecc83;}.cls-8{fill:#ffdfa4;}.cls-9{fill:#333;}.cls-10{fill:#4b1a33;}.cls-11{opacity:0.5;mix-blend-mode:multiply;}</style></defs><title>helping</title><g class="cls-1"><g id="Layer_1" data-name="Layer 1"><path class="cls-2" d="M352.7,443.13c-3.32-4.32-6.69-21.22-6.71-21.33h0a11,11,0,0,0-11-11H276.71a11,11,0,0,0-11,11s-3.38,17-6.71,21.33-4.62,31,3.36,36.33,20.64,3.33,24-4h39c3.33,7.33,16,9.33,24,4S356,447.47,352.7,443.13Z" transform="translate(-256.39 -307.26)"/><ellipse class="cls-3" cx="20.74" cy="163.58" rx="10.81" ry="10.13"/><ellipse class="cls-3" cx="78.62" cy="163.58" rx="10.81" ry="10.13"/><path class="cls-2" d="M305.85,307.26a57.9,57.9,0,0,0-31.36,9.33l11.5,20.5h39.71l11.5-20.5A57.9,57.9,0,0,0,305.85,307.26Z" transform="translate(-256.39 -307.26)"/><circle class="cls-4" cx="49.46" cy="11.67" r="8.64"/><polygon class="cls-5" points="55.46 10.02 51.1 10.02 51.1 5.67 47.81 5.67 47.81 10.02 43.46 10.02 43.46 13.31 47.81 13.31 47.81 17.67 51.1 17.67 51.1 13.31 55.46 13.31 55.46 10.02"/><circle class="cls-6" cx="49.46" cy="82.55" r="24.14"/><path class="cls-7" d="M316.64,393.69H295.05c2.5,11.87-5.63,17.12-5.63,17.12a20.43,20.43,0,0,0,32.85,0S314.14,405.56,316.64,393.69Z" transform="translate(-256.39 -307.26)"/><circle class="cls-8" cx="49.46" cy="58.41" r="35.2"/><path class="cls-6" d="M305.85,329.54c-37.72,0-35.2,33.13-35.2,33.13,24.31,0,35.2-13.49,35.2-13.49s10.89,13.49,35.2,13.49C341,362.67,343.57,329.54,305.85,329.54Z" transform="translate(-256.39 -307.26)"/><path class="cls-9" d="M291,365a3,3,0,0,0-1.82.63,9.29,9.29,0,0,1-1.31-2.87,0.5,0.5,0,0,0-1,.23,9.86,9.86,0,0,0,1.59,3.38,3,3,0,0,0-.36.81,5.47,5.47,0,0,1-2.5-2.2,0.5,0.5,0,0,0-.88.48,6.81,6.81,0,0,0,3.27,2.72c0,0.05,0,.1,0,0.15a6.51,6.51,0,0,1-3.42-.75,0.5,0.5,0,0,0-.52.85,7.4,7.4,0,0,0,3.6.92c0.2,0,.41,0,0.63,0A3,3,0,1,0,291,365Z" transform="translate(-256.39 -307.26)"/><path class="cls-9" d="M327.75,367.72a0.5,0.5,0,0,0-.69-0.17,6.48,6.48,0,0,1-3.42.75c0-.05,0-0.1,0-0.15a6.82,6.82,0,0,0,3.27-2.72A0.5,0.5,0,0,0,326,365a5.6,5.6,0,0,1-2.5,2.19,3,3,0,0,0-.35-0.8,9.86,9.86,0,0,0,1.59-3.38,0.5,0.5,0,0,0-1-.23,9.19,9.19,0,0,1-1.31,2.87,3,3,0,1,0,.87,3.68c0.21,0,.42,0,0.63,0a7.4,7.4,0,0,0,3.6-.92A0.5,0.5,0,0,0,327.75,367.72Z" transform="translate(-256.39 -307.26)"/><path class="cls-6" d="M305.85,390.22c-4.32,0-9.35-3.06-9.35-7a1,1,0,1,1,2,0c0,2.65,4.11,5,7.35,5s7.35-2.35,7.35-5a1,1,0,1,1,2,0C315.2,387.16,310.17,390.22,305.85,390.22Z" transform="translate(-256.39 -307.26)"/><rect class="cls-10" x="25.31" y="122.08" width="48.29" height="55"/><path class="cls-8" d="M270.08,472.72c2.12,4.45,15.88,7.5,24.25-2.62s-12.62-8-12.62-8v-2.62S263.7,459.34,270.08,472.72Z" transform="translate(-256.39 -307.26)"/><path class="cls-8" d="M341.62,472.72c-2.12,4.45-15.87,7.5-24.25-2.62s12.62-8,12.62-8v-2.62S348,459.34,341.62,472.72Z" transform="translate(-256.39 -307.26)"/><g class="cls-11"><path class="cls-2" d="M289.42,410.81H276.71a11,11,0,0,0-11,11s-3.38,17-6.71,21.33-4.62,31,3.36,36.33a19.41,19.41,0,0,0,19.36.8V480a11.36,11.36,0,0,1-4.57,1c-6,0-10.81-4.53-10.81-10.12a10,10,0,0,1,5.17-8.63c3.82-2.79,10.21-2.75,10.21-2.75v2.21h0V429.34h24V419.08A20.89,20.89,0,0,1,289.42,410.81Z" transform="translate(-256.39 -307.26)"/><path class="cls-3" d="M270.08,472.72c-2.58-5.41-1.17-8.61,1.42-10.5a10,10,0,0,0-5.17,8.63c0,5.59,4.84,10.13,10.81,10.13a11.36,11.36,0,0,0,4.57-1V476.8C276.16,477.29,271.27,475.23,270.08,472.72Z" transform="translate(-256.39 -307.26)"/><rect class="cls-3" x="25.31" y="154.42" height="0.42"/><path class="cls-2" d="M274.49,316.59l10.11,18c5-3,11.82-5.05,21.05-5.08v-2a8.64,8.64,0,0,1,0-17.27v-3A57.91,57.91,0,0,0,274.49,316.59Z" transform="translate(-256.39 -307.26)"/><path class="cls-4" d="M297.21,318.93a8.64,8.64,0,0,0,8.45,8.63v-2.63h-1.45v-4.36h-4.36v-3.29h4.36v-4.36h1.45v-2.63A8.64,8.64,0,0,0,297.21,318.93Z" transform="translate(-256.39 -307.26)"/><polygon class="cls-5" points="47.81 10.02 43.46 10.02 43.46 13.31 47.81 13.31 47.81 17.67 49.27 17.67 49.27 5.67 47.81 5.67 47.81 10.02"/><path class="cls-6" d="M281.76,391.32a24.1,24.1,0,0,0,9.58,17.79,15.72,15.72,0,0,0,4.15-9.8A35.16,35.16,0,0,1,281.76,391.32Z" transform="translate(-256.39 -307.26)"/><path class="cls-7" d="M291.34,409.11a11.67,11.67,0,0,1-1.91,1.69h0a20.89,20.89,0,0,0,16.24,8.27V400.86a35.18,35.18,0,0,1-10.17-1.56A15.72,15.72,0,0,1,291.34,409.11Z" transform="translate(-256.39 -307.26)"/><path class="cls-8" d="M270.79,362.67c-0.08,1-.14,2-0.14,3a35.18,35.18,0,0,0,35,35.19V390.21c-4.28-.09-9.16-3.11-9.16-7a1,1,0,1,1,2,0c0,2.59,4,4.9,7.16,5V349.4C304.14,351.12,293.19,362.62,270.79,362.67ZM291,371a3,3,0,0,1-2.69-1.69c-0.21,0-.42,0-0.63,0a7.4,7.4,0,0,1-3.6-.92,0.5,0.5,0,0,1,.52-0.85,6.51,6.51,0,0,0,3.42.75s0-.1,0-0.15a6.81,6.81,0,0,1-3.27-2.72,0.5,0.5,0,0,1,.88-0.48,5.47,5.47,0,0,0,2.5,2.2,3,3,0,0,1,.36-0.81,9.86,9.86,0,0,1-1.59-3.38,0.5,0.5,0,0,1,1-.23,9.29,9.29,0,0,0,1.31,2.87A3,3,0,1,1,291,371Z" transform="translate(-256.39 -307.26)"/><path class="cls-6" d="M270.65,362.67h0.14c22.4,0,33.36-11.54,34.87-13.26V329.54c-9.23,0-16,2-21.05,5.08C269.23,343.91,270.65,362.67,270.65,362.67Z" transform="translate(-256.39 -307.26)"/><path class="cls-9" d="M291,365a3,3,0,0,0-1.82.63,9.29,9.29,0,0,1-1.31-2.87,0.5,0.5,0,0,0-1,.23,9.86,9.86,0,0,0,1.59,3.38,3,3,0,0,0-.36.81,5.47,5.47,0,0,1-2.5-2.2,0.5,0.5,0,0,0-.88.48,6.81,6.81,0,0,0,3.27,2.72c0,0.05,0,.1,0,0.15a6.51,6.51,0,0,1-3.42-.75,0.5,0.5,0,0,0-.52.85,7.4,7.4,0,0,0,3.6.92c0.2,0,.41,0,0.63,0A3,3,0,1,0,291,365Z" transform="translate(-256.39 -307.26)"/><path class="cls-6" d="M298.5,383.22a1,1,0,1,0-2,0c0,3.88,4.88,6.9,9.16,7v-2C302.45,388.12,298.5,385.81,298.5,383.22Z" transform="translate(-256.39 -307.26)"/><path class="cls-10" d="M281.71,461.68v0.42s21-2.12,12.62,8a18.26,18.26,0,0,1-12.62,6.71v7.54h24v-55h-24v32.33Z" transform="translate(-256.39 -307.26)"/><path class="cls-8" d="M270.08,472.72c1.2,2.51,6.09,4.57,11.63,4.08a18.26,18.26,0,0,0,12.62-6.71c8.37-10.12-12.6-8-12.62-8h0v-2.62s-6.39,0-10.21,2.75C268.91,464.11,267.5,467.31,270.08,472.72Z" transform="translate(-256.39 -307.26)"/></g></g></g></svg>