<svg id="Object" xmlns="http://www.w3.org/2000/svg" viewBox="0 0 291.94 268.74"><defs><style>.cls-1{fill:#f0a021;}.cls-2{fill:#d45622;}.cls-3{fill:#eb8024;}.cls-4{fill:#be4d1c;}.cls-5{fill:#782b00;}.cls-6{fill:#fff;}</style></defs><title>bobcat</title><path class="cls-1" d="M621.9,516.53a68.18,68.18,0,0,0,18.7-32.43l0.76,7.23A54.87,54.87,0,0,0,650,459.76l4.77,9.5a73.25,73.25,0,0,0,5.34-30.88l6,7.13a86.64,86.64,0,0,0-5.42-41l7.82,4.63c-2.61-5.79-5.07-13.08-1.06-18s12-3.94,17.28-.48c7.82,5.11,12.37,14.19,13.9,23.4s0.38,18.65-1.11,27.87l4.88-2.94a86.69,86.69,0,0,1-15.5,41l4.88,0.06a97,97,0,0,1-17.91,24.75l2.17,4.59c-7.16,7.52-14.5,15.18-23.74,19.92s-20.9,6.07-29.82.77" transform="translate(-410.47 -387.76)"/><path class="cls-2" d="M688.64,485.75a97,97,0,0,1-14.75,19l2.17,4.59q-1.75,1.84-3.53,3.68a45.76,45.76,0,0,0-9.81-9l4.71-1a21.36,21.36,0,0,0-15-6.35l5.94-3.6a44.88,44.88,0,0,0-20.63-.06,67.13,67.13,0,0,0,2.87-8.84l0.76,7.23A54.86,54.86,0,0,0,650,459.76l4.77,9.5a72.55,72.55,0,0,0,2.53-7.3,53.68,53.68,0,0,1,9.76,8.72l-0.5-4.86a35.33,35.33,0,0,1,13.52,17l-1.42-9.9A128,128,0,0,1,688.64,485.75Zm2.72-70.27c-6.36-7.16-16-10.18-25.24-12.83a44.08,44.08,0,0,0,2.42,6.5l-7.82-4.63a86.65,86.65,0,0,1,5.92,31.11,37.55,37.55,0,0,1,15.5,3.86L677,431.62a72.41,72.41,0,0,1,24.32,14.54c0.46-2.37.85-4.76,1.1-7.16l-4.88,2.94c1.48-9.2,2.63-18.61,1.12-27.81-3.59-2.29-7.37-4.34-11.1-6.33Z" transform="translate(-410.47 -387.76)"/><path class="cls-3" d="M697.54,441.93c1.49-9.22,2.64-18.66,1.11-27.87s-6.08-18.3-13.9-23.4a17.5,17.5,0,0,0-10.28-2.87,102.79,102.79,0,0,1-26.6,124.28c-5.41,4.5-11.69,9.05-13.18,15.93a13.08,13.08,0,0,0,0,5.45,36.7,36.7,0,0,0,17.64-4.16c9.24-4.74,16.59-12.4,23.74-19.92l-2.17-4.59A97,97,0,0,0,691.79,480l-4.88-.06a86.68,86.68,0,0,0,15.5-41Z" transform="translate(-410.47 -387.76)"/><path class="cls-4" d="M698.68,414.31c0-.06,0-0.12,0-0.18-3.59-2.29-7.37-4.34-11.1-6.33l3.8,7.68a31.87,31.87,0,0,0-9.45-7.06,104.55,104.55,0,0,1,3,26.56,73.32,73.32,0,0,1,16.42,11.17h0c0.19-1,.36-2,0.52-3,0.22-1.39.43-2.78,0.58-4.18l-4.88,2.94C699,432.79,700.15,423.44,698.68,414.31Z" transform="translate(-410.47 -387.76)"/><path class="cls-4" d="M677.61,500.8l0.69-.78c1.21-1.39,2.39-2.81,3.52-4.27l0.08-.1q1.79-2.32,3.44-4.74l0.07-.1q1.68-2.48,3.21-5.06a128,128,0,0,0-9.94-12.87l1.42,9.9a34.94,34.94,0,0,0-4.18-7.84,104.57,104.57,0,0,1-14.72,23.69,21.06,21.06,0,0,1,6.2,4.34l-4.71,1a45.76,45.76,0,0,1,9.81,9q1.78-1.83,3.53-3.68l-2.17-4.59C675.17,503.5,676.41,502.16,677.61,500.8Z" transform="translate(-410.47 -387.76)"/><path class="cls-3" d="M418.4,400.35l-7.93,8.71,7.06-.06L414,414.34l5,0a78.09,78.09,0,0,0,9.64,33.74c2.34,4.23,5.86,8.69,10.7,8.75,2.8,0,5.36-1.46,7.69-3a105,105,0,0,0,26.82-25.55c2.25-3.08,4.42-6.57,4.2-10.38-0.27-4.59-3.91-8.22-7.55-11a77.32,77.32,0,0,0-54.15-15.51l6,3.39-9.51,4.14Z" transform="translate(-410.47 -387.76)"/><path class="cls-2" d="M435.27,440.79c1.34,1.49,3,2.91,5,3a8.75,8.75,0,0,0,4.35-1.28,116,116,0,0,0,29.54-21.36,66.93,66.93,0,0,0-39.77-22.8c-1.65-.28-3.46-0.47-4.91.37-2.13,1.23-2.57,4.06-2.73,6.51a74,74,0,0,0,.69,18.72A34.71,34.71,0,0,0,435.27,440.79Z" transform="translate(-410.47 -387.76)"/><path class="cls-3" d="M585,400.35l7.93,8.71-7.06-.06,3.56,5.34-5,0a78.09,78.09,0,0,1-9.64,33.74c-2.34,4.23-5.86,8.69-10.7,8.75-2.8,0-5.36-1.46-7.69-3a105,105,0,0,1-26.82-25.55c-2.25-3.08-4.42-6.57-4.2-10.38,0.27-4.59,3.91-8.22,7.55-11a77.32,77.32,0,0,1,54.15-15.51l-6,3.39,9.51,4.14Z" transform="translate(-410.47 -387.76)"/><path class="cls-2" d="M568.15,440.79c-1.34,1.49-3,2.91-5,3a8.75,8.75,0,0,1-4.35-1.28,116,116,0,0,1-29.54-21.36A66.93,66.93,0,0,1,569,398.38c1.65-.28,3.46-0.47,4.91.37,2.13,1.23,2.57,4.06,2.73,6.51A74,74,0,0,1,576,424,34.71,34.71,0,0,1,568.15,440.79Z" transform="translate(-410.47 -387.76)"/><path class="cls-2" d="M562.14,593.83s1.82,21.45,5.38,33.52c2.67,9,.25,13.91-1,15.58-1.42,1.85-5.17,3.45-4.34,6.76s19,5.38,23.59.83,7.86-21.52,7.86-33.1,17.79-23.17,19.86-27.72S562.14,593.83,562.14,593.83Z" transform="translate(-410.47 -387.76)"/><path class="cls-1" d="M463.24,492.44c-23,6.54-10.48,60.14,2.21,94.9A541.13,541.13,0,0,0,490,644.56c1.1,2.76-3.08,6-1.42,9,3,5.39,19.86,1.66,22.62,0S514.75,606,517,599.89s10.55,51.31,11.79,53.59,20.28,3.31,21.52.83-1.69-7.73-2.79-10.48c-1.24-3.1,12.46-30.29,16-44.55,0.83-3.31,38.69-3.52,40.35-3.1s6.14,15.73,15.31,29.38c6.39,9.52,5.95,10.26,4.76,17.38-0.29,1.76-5.59,7.86-3.93,11.17s21.31,2.9,26.69.62,6.62-26.48,2.48-44.48,12-69.93-1.66-87.72S502,481.41,463.24,492.44Z" transform="translate(-410.47 -387.76)"/><path class="cls-3" d="M647.51,522.51c-23.88-23.57-35.14-16.8-69.09-23.37,21.22,7,54.51,21.49,57.5,43.51,4.41,32.55-5,56.83,4.41,76.69s6.07,32.55-3.31,37l-0.09.05c4.09-.25,7.83-0.83,9.75-1.64,5.38-2.28,6.62-26.48,2.48-44.48S671.39,546.08,647.51,522.51Z" transform="translate(-410.47 -387.76)"/><path class="cls-3" d="M603.86,596.17a18.52,18.52,0,0,1,.92-14c-8.83,1.1-37.27-.32-37.27-0.32-0.55,7.72-4,17.45-4,17.45C564.34,596,602.2,595.75,603.86,596.17Z" transform="translate(-410.47 -387.76)"/><path class="cls-3" d="M541,655.2c-11.59-5.52-11.59-39.72-12.69-53s-9.93-24.83-14.35-18.76-5,45.24-6.07,59.59c-0.5,6.45-3.11,10.43-5.84,12.87,4.17-.59,8-1.68,9.15-2.39,2.76-1.66,3.52-47.59,5.72-53.66s10.55,51.31,11.79,53.59c0.72,1.33,7.49,2.23,13.26,2.26A9.71,9.71,0,0,0,541,655.2Z" transform="translate(-410.47 -387.76)"/><path class="cls-2" d="M441.41,513.35s-5.87,47.45,70.49,58c0,0,56.09-14.61,68.72-47.92s-5.89-39.25-18.45-43S441.41,513.35,441.41,513.35Z" transform="translate(-410.47 -387.76)"/><path class="cls-1" d="M504.64,411c-53.41,0-85.08,48.44-79.49,75.14s32.29,54.65,79.49,54.65,73.9-27.95,79.49-54.65S558.05,411,504.64,411Z" transform="translate(-410.47 -387.76)"/><path class="cls-5" d="M505.34,476.35c-20.37,0-14.89,18.38-.38,18.38C520,494.72,525.13,476.35,505.34,476.35Z" transform="translate(-410.47 -387.76)"/><circle class="cls-5" cx="62.62" cy="74.44" r="7.42"/><circle class="cls-6" cx="60.04" cy="71.63" r="2.45"/><circle class="cls-6" cx="65.01" cy="79.12" r="1.19"/><circle class="cls-5" cx="127.21" cy="74.44" r="7.42"/><circle class="cls-6" cx="124.63" cy="71.63" r="2.45"/><circle class="cls-6" cx="129.6" cy="79.12" r="1.19"/><path class="cls-5" d="M518.49,502.11c-5.38,5.51-9.68,7.47-17.12,5.54-4.15-1.07-6.57-2.75-10.3-4.7-1.39-.73-1.25,1.37-1.06,1.68,2.72,4.67,8.62,6.56,13,7.25,7.43,1.18,12.33-2.15,17.73-7.64A1.57,1.57,0,1,0,518.49,502.11Z" transform="translate(-410.47 -387.76)"/><path class="cls-5" d="M507.4,496.58c-0.06-2.67.09-5.44-.82-8a0.93,0.93,0,0,0-1.75-.06c-1.71,5.07-.75,11.66-0.65,16.95,0,2.09,3.38,2.23,3.37.11C507.55,502.59,507.46,499.58,507.4,496.58Z" transform="translate(-410.47 -387.76)"/><path class="cls-3" d="M582.38,465.51c-5.07,14.3-17.49,49.56-76.28,51.5-52.42,1.72-74.59-34-80.47-46.76a38.07,38.07,0,0,0-.48,15.86c5.59,26.7,32.29,54.65,79.49,54.65s73.9-27.95,79.49-54.65C585.39,480.08,584.74,472.95,582.38,465.51Z" transform="translate(-410.47 -387.76)"/><path class="cls-2" d="M482.11,432.08L486.37,413A81.25,81.25,0,0,0,474,416.75Z" transform="translate(-410.47 -387.76)"/><path class="cls-2" d="M504.64,411a84.32,84.32,0,0,0-17.5,1.84,252.34,252.34,0,0,1,17.1,44.74l8.17-46.2C509.87,411.12,507.29,411,504.64,411Z" transform="translate(-410.47 -387.76)"/><path class="cls-2" d="M521.62,435L532,415.53a82,82,0,0,0-17.46-4A79.08,79.08,0,0,1,521.62,435Z" transform="translate(-410.47 -387.76)"/><path class="cls-2" d="M569,441.46l-11.14,9.67,21,5.7A78.24,78.24,0,0,0,569,441.46Z" transform="translate(-410.47 -387.76)"/><path class="cls-2" d="M580.06,459.34a109.27,109.27,0,0,0-22.36,20l27,0.21A51.78,51.78,0,0,0,580.06,459.34Z" transform="translate(-410.47 -387.76)"/><path class="cls-2" d="M439.15,442.88A78,78,0,0,0,430.82,456l17.84-4.83Z" transform="translate(-410.47 -387.76)"/><path class="cls-2" d="M428.61,460.81a50.74,50.74,0,0,0-4.06,18.74l24.3-.19A109.27,109.27,0,0,0,428.61,460.81Z" transform="translate(-410.47 -387.76)"/><path class="cls-5" d="M477.63,481.37c-18.81-9-43.81-9-61.52,2.8a1,1,0,0,0,.8,1.9c20.81-6.85,38.52-8.85,60-2.91A1,1,0,0,0,477.63,481.37Z" transform="translate(-410.47 -387.76)"/><path class="cls-5" d="M475.43,489.9c-17.75-3.6-39.44,8.57-50.6,21.88a1.4,1.4,0,0,0,1.69,2.19c7.13-3.67,13.13-9.34,20-13.53,9-5.47,18.28-7.41,28.6-8.19C476.39,492.15,476.83,490.18,475.43,489.9Z" transform="translate(-410.47 -387.76)"/><path class="cls-5" d="M475.82,501.87c-11.3,4.84-24.83,16.17-26.2,29.31-0.1.91,1.18,1.09,1.61,0.43,3.43-5.25,5.49-10.83,9.6-15.75a53.21,53.21,0,0,1,15.8-12.6C477.57,502.76,476.75,501.47,475.82,501.87Z" transform="translate(-410.47 -387.76)"/><path class="cls-5" d="M535.45,481.37c18.81-9,43.81-9,61.52,2.8a1,1,0,0,1-.8,1.9c-20.81-6.85-38.52-8.85-60-2.91A1,1,0,0,1,535.45,481.37Z" transform="translate(-410.47 -387.76)"/><path class="cls-5" d="M537.65,489.9c17.75-3.6,39.44,8.57,50.6,21.88a1.4,1.4,0,0,1-1.69,2.19c-7.13-3.67-13.13-9.34-20-13.53-9-5.47-18.28-7.41-28.6-8.19C536.7,492.15,536.25,490.18,537.65,489.9Z" transform="translate(-410.47 -387.76)"/><path class="cls-5" d="M537.26,501.87c11.3,4.84,24.83,16.17,26.2,29.31,0.1,0.91-1.18,1.09-1.61.43-3.43-5.25-5.49-10.83-9.6-15.75a53.21,53.21,0,0,0-15.8-12.6C535.51,502.76,536.34,501.47,537.26,501.87Z" transform="translate(-410.47 -387.76)"/><path class="cls-2" d="M488.81,630.38c-2-.27-4-0.6-6-1,1.83,3.94,3.39,7.17,4.59,9.62l4.19-3.77-5.12-2.53Z" transform="translate(-410.47 -387.76)"/><path class="cls-2" d="M468.49,595.49c2.39,6.26,4.68,11.94,6.82,17,4.32-3,8.86-5.69,12.53-9.42l-10.62-2.83,4.48-1.59Z" transform="translate(-410.47 -387.76)"/><path class="cls-2" d="M542.47,624.49l3.81,2.93L539,630.16l9.89,7.49c1.22-3.36,3-7.77,5-12.53A31.46,31.46,0,0,0,542.47,624.49Z" transform="translate(-410.47 -387.76)"/><path class="cls-2" d="M550.05,598.87a1,1,0,0,0-.8.39,1.07,1.07,0,0,0,.38,1.13l4.1,4.54a1.18,1.18,0,0,1,.42,1.25,1.17,1.17,0,0,1-1,.42l-5.52.36a136.78,136.78,0,0,0,9.67,10,155.65,155.65,0,0,0,6.07-17.16A31.4,31.4,0,0,0,550.05,598.87Z" transform="translate(-410.47 -387.76)"/><path class="cls-2" d="M627.46,617.95a63.19,63.19,0,0,0-10.36,4.36c0.66,1.08,1.34,2.17,2.06,3.24,2.65,4,4.12,6.38,4.85,8.39a58.06,58.06,0,0,1,6.87-2.62l-3.65-2.65a23.06,23.06,0,0,0,6.48-5.33,21.63,21.63,0,0,0-7.71-2.08Z" transform="translate(-410.47 -387.76)"/><path class="cls-2" d="M620.76,605.69s-2.77-.67-3.45-0.18l5.24-5a17.37,17.37,0,0,0-9-2.16,6.68,6.68,0,0,1,2.7-3.4,40.8,40.8,0,0,0-10.86,3.42c1.42,2.92,3.58,8.41,6.7,14.71l4.89-3a7.08,7.08,0,0,0,2-1.55C619.45,607.93,620.76,605.69,620.76,605.69Z" transform="translate(-410.47 -387.76)"/></svg>