<svg id="Capa_1" data-name="Capa 1" xmlns="http://www.w3.org/2000/svg" viewBox="0 0 163.02 135.9"><defs><style>.cls-1{fill:#c9c9c9;}.cls-2{fill:#f0f0f0;}.cls-3{fill:#5c8ea1;}.cls-4{fill:#4e4e4e;}.cls-5{fill:#5d8e9b;}.cls-6{fill:#e3e3e3;}</style></defs><title>code</title><rect class="cls-1" x="57.83" y="115.25" width="47.36" height="20.65"/><rect class="cls-2" x="51.76" y="131.04" width="59.51" height="4.86"/><rect class="cls-2" width="163.02" height="118.91" rx="4.86" ry="4.86"/><path class="cls-3" d="M173.56,338.57V239.93a4.86,4.86,0,0,0-4.86-4.86H15.41a4.86,4.86,0,0,0-4.86,4.86v98.64h163Z" transform="translate(-10.55 -235.07)"/><polygon class="cls-4" points="6.93 6.93 6.93 14.64 6.93 99.39 22.41 99.39 140.61 99.39 156.09 99.39 156.09 14.64 156.09 6.93 6.93 6.93"/><circle class="cls-5" cx="81.51" cy="111.91" r="3.8"/><rect class="cls-6" x="11.73" y="12.5" width="14.17" height="1.62"/><rect class="cls-6" x="18.82" y="15.29" width="14.17" height="1.62"/><rect class="cls-6" x="18.82" y="37.66" width="14.17" height="1.62"/><rect class="cls-6" x="18.82" y="18.26" width="32.94" height="1.61"/><rect class="cls-6" x="18.82" y="21.38" width="25.92" height="1.62"/><rect class="cls-6" x="11.73" y="25.96" width="27.91" height="1.61"/><rect class="cls-6" x="18.82" y="28.74" width="51.17" height="1.62"/><rect class="cls-6" x="18.82" y="31.72" width="32.94" height="1.61"/><rect class="cls-6" x="11.73" y="41.65" width="27.91" height="1.62"/><rect class="cls-6" x="18.82" y="44.43" width="51.17" height="1.62"/><rect class="cls-6" x="18.82" y="47.4" width="32.94" height="1.61"/><rect class="cls-6" x="18.82" y="34.84" width="44.13" height="1.62"/><rect class="cls-6" x="11.73" y="51.75" width="14.17" height="1.62"/><rect class="cls-6" x="18.82" y="54.53" width="14.17" height="1.62"/><rect class="cls-6" x="18.82" y="76.91" width="14.17" height="1.62"/><rect class="cls-6" x="18.82" y="57.51" width="32.94" height="1.61"/><rect class="cls-6" x="18.82" y="60.63" width="25.92" height="1.61"/><rect class="cls-6" x="11.73" y="65.2" width="27.91" height="1.62"/><rect class="cls-6" x="18.82" y="67.99" width="51.17" height="1.61"/><rect class="cls-6" x="18.82" y="70.96" width="32.94" height="1.62"/><rect class="cls-6" x="11.73" y="80.89" width="27.91" height="1.62"/><rect class="cls-6" x="18.82" y="83.67" width="51.17" height="1.61"/><rect class="cls-6" x="18.82" y="86.64" width="32.94" height="1.62"/><rect class="cls-6" x="18.82" y="74.08" width="44.13" height="1.62"/></svg>