<svg xmlns="http://www.w3.org/2000/svg" xmlns:xlink="http://www.w3.org/1999/xlink" viewBox="0 0 205.59 212.43"><defs><style>.cls-1{fill:#a5b500;}.cls-2{isolation:isolate;}.cls-3{fill:#7f952d;}.cls-4{fill:#5f7022;}.cls-5{clip-path:url(#clip-path);}.cls-6{clip-path:url(#clip-path-2);}.cls-7{fill:#fff;}.cls-8,.cls-9{fill:#453434;}.cls-9{mix-blend-mode:soft-light;}</style><clipPath id="clip-path" transform="translate(-555.26 -295.23)"><path id="_Clipping_Path_" data-name="&lt;Clipping Path&gt;" class="cls-1" d="M618.85,428.89c-1.23,2-5.42,43.34-3.05,64.62,0,0-8.73,2.64-7.35,6.09s28.48,6.86,34,3.42S644,462.38,659,462.38v-32.7Z"/></clipPath><clipPath id="clip-path-2" transform="translate(-555.26 -295.23)"><path id="_Clipping_Path_2" data-name="&lt;Clipping Path&gt;" class="cls-1" d="M698.07,428.89c1.23,2,5.23,43.34,2.87,64.62,0,0,8.64,2.64,7.26,6.09S680,506.46,674.53,503s-1.79-40.64-16.25-40.64l-5.16-32.7Z"/></clipPath></defs><title>dragon</title><g class="cls-2"><g id="OBJECTS"><path class="cls-3" d="M755.36,411.89s-35.82,28.46-23.43,56.69L693,443.11Z" transform="translate(-555.26 -295.23)"/><path class="cls-3" d="M759.78,335.51s-16.81,52.8-4.42,76.38l-54,24.33s17.13-55.75,19-57.13S759.78,335.51,759.78,335.51Z" transform="translate(-555.26 -295.23)"/><path class="cls-4" d="M716.1,375.65c2.07-1.38,41.3-36.48,44.74-42,0,0-28.65,50.78-46.37,61.64" transform="translate(-555.26 -295.23)"/><path class="cls-4" d="M705.78,425.9c1.71,0.71,49.58-14,49.58-14l-72,35.69Z" transform="translate(-555.26 -295.23)"/><path class="cls-3" d="M560.74,411.89s35.82,28.46,23.43,56.69l38.92-25.47Z" transform="translate(-555.26 -295.23)"/><path class="cls-3" d="M556.32,335.51s16.81,52.8,4.42,76.38l54,24.33s-17.13-55.75-19-57.13S556.32,335.51,556.32,335.51Z" transform="translate(-555.26 -295.23)"/><path class="cls-4" d="M600,375.65c-2.07-1.38-41.3-36.48-44.74-42,0,0,28.65,50.78,46.37,61.64" transform="translate(-555.26 -295.23)"/><path class="cls-4" d="M610.32,425.9c-1.71.71-49.58-14-49.58-14l72,35.69Z" transform="translate(-555.26 -295.23)"/><path class="cls-3" d="M699.69,444.14l6.6,32.7s8.26,11.7,8.26,13.77S698,493.42,698,493.42Z" transform="translate(-555.26 -295.23)"/><path class="cls-3" d="M616.52,444.14l-6.6,32.7s-8.26,11.7-8.26,13.77,16.52,2.82,16.52,2.82Z" transform="translate(-555.26 -295.23)"/><path class="cls-3" d="M631.92,485s30.25,18.9,52.25-.82L672.69,450h-33Z" transform="translate(-555.26 -295.23)"/><path id="_Clipping_Path_3" data-name="&lt;Clipping Path&gt;" class="cls-1" d="M618.85,428.89c-1.23,2-5.42,43.34-3.05,64.62,0,0-8.73,2.64-7.35,6.09s28.48,6.86,34,3.42S644,462.38,659,462.38v-32.7Z" transform="translate(-555.26 -295.23)"/><g class="cls-5"><path class="cls-3" d="M617.88,500.93a3.79,3.79,0,0,0-1-2.46,3.49,3.49,0,0,0-4.93,0,3.79,3.79,0,0,0-1,2.46,3.15,3.15,0,0,0,.06,1.46,5,5,0,0,0,1.14,1.85,3.21,3.21,0,0,0,4.56,0,12.72,12.72,0,0,0,.78-1A3.32,3.32,0,0,0,617.88,500.93Z" transform="translate(-555.26 -295.23)"/><path class="cls-3" d="M622.66,498.81a4.18,4.18,0,1,0,4.18,4.18A4.22,4.22,0,0,0,622.66,498.81Z" transform="translate(-555.26 -295.23)"/><path class="cls-3" d="M632,499.36c-5,0-5,8.3,0,8.3A4.16,4.16,0,1,0,632,499.36Z" transform="translate(-555.26 -295.23)"/></g><path id="_Clipping_Path_4" data-name="&lt;Clipping Path&gt;" class="cls-1" d="M698.07,428.89c1.23,2,5.23,43.34,2.87,64.62,0,0,8.64,2.64,7.26,6.09S680,506.46,674.53,503s-1.79-40.64-16.25-40.64l-5.16-32.7Z" transform="translate(-555.26 -295.23)"/><g class="cls-6"><path class="cls-3" d="M698.68,500.93a3.79,3.79,0,0,1,1-2.46,3.49,3.49,0,0,1,4.93,0,3.79,3.79,0,0,1,1,2.46,3.13,3.13,0,0,1-.06,1.46,5,5,0,0,1-1.14,1.85,3.21,3.21,0,0,1-4.56,0c-0.27-.33-0.54-0.65-0.78-1A3.32,3.32,0,0,1,698.68,500.93Z" transform="translate(-555.26 -295.23)"/><path class="cls-3" d="M693.9,498.81a4.18,4.18,0,1,1-4.18,4.18A4.22,4.22,0,0,1,693.9,498.81Z" transform="translate(-555.26 -295.23)"/><path class="cls-3" d="M686,499.36c5,0,5,8.3,0,8.3C679,507.66,679,499.36,686,499.36Z" transform="translate(-555.26 -295.23)"/></g><path class="cls-7" d="M643.88,435.93s4.34,16.8,6.92,17.25,7.36-15.56,7.36-15.56Z" transform="translate(-555.26 -295.23)"/><path class="cls-7" d="M655.86,436.92s7.4,15.7,10,15.65,4.32-16.66,4.32-16.66Z" transform="translate(-555.26 -295.23)"/><path class="cls-1" d="M727.77,409.42c-0.29-8.86-22.77-73.81-32.61-76.45s-12.28-5.51-36.88-5.51-28.71,3.55-38.55,6.2-30.65,66.9-30.94,75.76,5.53,30.15,69.49,30.15S728.06,418.27,727.77,409.42Z" transform="translate(-555.26 -295.23)"/><circle class="cls-1" cx="704.19" cy="367.9" r="22.77" transform="translate(-340.84 698.26) rotate(-79.53)"/><circle class="cls-7" cx="704.19" cy="367.9" r="15.54" transform="translate(-340.84 698.26) rotate(-79.53)"/><path class="cls-8" d="M703.45,365.95a8.52,8.52,0,0,0-8.26,2.65A9,9,0,1,1,710.81,374,8.6,8.6,0,0,0,703.45,365.95Z" transform="translate(-555.26 -295.23)"/><circle class="cls-1" cx="612.37" cy="367.9" r="22.77" transform="translate(-611.93 -177.78) rotate(-10.47)"/><circle class="cls-7" cx="612.37" cy="367.9" r="15.54" transform="translate(-611.93 -177.79) rotate(-10.47)"/><path class="cls-8" d="M613.11,365.95a8.52,8.52,0,0,1,8.26,2.65,9.15,9.15,0,0,0-.11-2.33A9,9,0,1,0,605.74,374,8.6,8.6,0,0,1,613.11,365.95Z" transform="translate(-555.26 -295.23)"/><path class="cls-3" d="M700.61,424c3.42-15-5.37-35.29-11.37-36.65s-16-2.29-31-2.29-25,.93-31,2.29S616.13,419.46,616,424s3.37,15.54,42.33,15.54S699.59,428.48,700.61,424Z" transform="translate(-555.26 -295.23)"/><path class="cls-3" d="M625.81,372.81a16.35,16.35,0,1,0,16.35,16.35A16.51,16.51,0,0,0,625.81,372.81Z" transform="translate(-555.26 -295.23)"/><path class="cls-3" d="M686.81,371.28a15.91,15.91,0,1,0,15.91,15.91A16.06,16.06,0,0,0,686.81,371.28Z" transform="translate(-555.26 -295.23)"/><ellipse class="cls-9" cx="132.12" cy="93.41" rx="4.96" ry="4.97"/><ellipse class="cls-9" cx="71.11" cy="93.41" rx="4.96" ry="4.97"/><path class="cls-3" d="M674,327.26s21.22-33.4,27.48-32-2.83,41.66-2.83,41.66S682.26,337.4,674,327.26Z" transform="translate(-555.26 -295.23)"/><path class="cls-3" d="M638.74,329.51s-21.47-33.79-27.8-32.36,2.86,42.14,2.86,42.14S630.36,339.77,638.74,329.51Z" transform="translate(-555.26 -295.23)"/><path class="cls-3" d="M659,349.78c-5,0-5,7.68,0,7.68C663,357.46,663,349.78,659,349.78Z" transform="translate(-555.26 -295.23)"/><path class="cls-3" d="M666,345c-3,0-3,4.91,0,4.91S669,345,666,345Z" transform="translate(-555.26 -295.23)"/><path class="cls-3" d="M659,341.32a2,2,0,1,0,0,4C661,345.27,661,341.32,659,341.32Z" transform="translate(-555.26 -295.23)"/></g></g></svg>