<?xml version="1.0" encoding="utf-8"?>
<!-- Generator: Adobe Illustrator 19.2.1, SVG Export Plug-In . SVG Version: 6.00 Build 0)  -->
<svg version="1.1" id="Layer_1" xmlns="http://www.w3.org/2000/svg" xmlns:xlink="http://www.w3.org/1999/xlink" x="0px" y="0px"
	 viewBox="0 0 171.4 190.2" style="enable-background:new 0 0 171.4 190.2;" xml:space="preserve">
<style type="text/css">
	.st0{fill:#3A5BA0;}
	.st1{clip-path:url(#SVGID_2_);}
	.st2{opacity:0.5;fill:url(#SVGID_3_);enable-background:new    ;}
	.st3{fill:#FFFFFF;}
</style>
<title>facebook</title>
<ellipse id="Circle" class="st0" cx="83.2" cy="96.5" rx="64.2" ry="64.3"/>
<g id="f_shadow">
	<g>
		<g>
			<defs>
				<ellipse id="SVGID_1_" cx="83.2" cy="96.5" rx="64.2" ry="64.3"/>
			</defs>
			<clipPath id="SVGID_2_">
				<use xlink:href="#SVGID_1_"  style="overflow:visible;"/>
			</clipPath>
			<g class="st1">
				
					<linearGradient id="SVGID_3_" gradientUnits="userSpaceOnUse" x1="964.7242" y1="1307.5469" x2="828.5842" y2="1193.3169" gradientTransform="matrix(1 0 0 1 -765.79 -1111.7)">
					<stop  offset="0.58" style="stop-color:#000000;stop-opacity:0"/>
					<stop  offset="0.63" style="stop-color:#000000;stop-opacity:0.12"/>
					<stop  offset="1" style="stop-color:#000000"/>
				</linearGradient>
				<path class="st2" d="M185,155.4h5.3V142H190v-0.3h-0.3v-0.2h-0.3v-0.3h-0.3v-0.3h-0.3v-0.3h-0.3v-0.3h-0.3V140h-0.3v-0.3h-0.3
					v-0.3h-0.3v-0.3H187v-0.3h-0.3v-0.3h-0.3v-0.3h-0.3V138h-0.3v-0.3h-0.3v-0.3h-0.3v-0.3h-0.3v-0.3h-0.3v-0.3h-0.3v-0.3H184V136
					h-0.3v-0.3h-0.3v-0.3h-0.3v-0.3h-0.3v-0.3h0.2v-0.3h-0.3v-0.3h-0.3V134h-0.3v-0.3h-0.3v-0.3h-0.3v-0.3h-0.3v-0.3H181v-0.3h-0.3
					v-0.3h-0.3v-0.3h-0.3v-0.3h-0.3v-0.3h-0.3V131h-0.3v-0.3H179v-0.3h-0.3v-0.3h-0.3v-0.3h-0.3v-0.3h-0.3v-0.3h-0.3v-0.3h-0.3v-0.3
					H177v-0.3h-0.3V128h-0.3v-0.3h-0.3v-0.3h-0.3v-0.3h-0.3v-0.3h-0.3v-0.3h-0.3v-0.3h-0.3v-0.3h-0.3v0.1H174v-0.3h-0.3v-0.3h-0.3
					v-0.3h-0.3v-0.3h-0.3v-0.3h-0.3v-0.3h-0.3v-0.3h-0.3v-0.3h0.1v-0.3h-0.3V123h-0.3v-0.3h-0.3v-0.3h-0.3v-0.3h-0.3v-0.3h-0.3v-0.3
					H170v-0.3h-0.3v-0.3h-0.3v-0.3h-0.3v-0.3h-0.3V120h-0.3v-0.3h-0.3v-0.3H168v-0.3h-0.3v-0.3h-0.3v-0.3h-0.3v-0.3h-0.3v-0.3h-0.3
					v-0.3h-0.3v-0.3H166V117h-0.3v-0.3h-0.3v-0.3h-0.3v-0.3h-0.3v-0.2h-0.3v-0.3h-0.3v-0.3H164V115h-0.3v-0.3h-0.3v0.3h-0.3v-0.3
					h-0.3v-0.3h-0.3v-0.3h-0.3v-0.3H162v-0.3h-0.3v-0.3h-0.3V113h-0.3v-0.3H161v-0.3h-0.3v-0.3h-0.3v-0.3h-0.3v-0.3h-0.3v-0.3h-0.3
					V111h-0.3v-0.3H159v-0.3h-0.3v-0.3h-0.3v-0.3h-0.3v-0.3h-0.3v-0.3h-0.3V109h-0.3v-0.3H157v-0.3h-0.3v-0.3h-0.3v-0.3h-0.3v-0.3
					h-0.3v-0.3h-0.3V107h-0.3v-0.3H155v-0.3h-0.3v-0.3h-0.3v-0.3h-0.3v-0.3h-0.3v-0.3h-0.3V105h-0.2v-0.3H153v-0.3h-0.3v-0.3h-0.3
					v-0.3h-0.3v-0.3h-0.3v-0.3h-0.3V103h-0.3v-0.3H151v-0.3h-0.3v-0.3h-0.3v-0.3h-0.3v-0.3h-0.3v-0.3h-0.3V101h-0.3v-0.3h-0.3v-0.3
					h-0.3v-0.3h-0.3v-0.3H148v-0.3h-0.3v-0.3h-0.3v-0.3h-0.3v-0.3h-0.3v-0.3h-0.3V98h-0.3v-0.3h-0.3v-0.3h0.1v-0.3h-0.3V97h-0.3
					v-0.3h-0.3v-0.2h-0.3v-0.3h-0.3v-0.3h-0.3v-0.3H144v-0.3h-0.3V95h-0.3v-0.3h-0.3v-0.3h-0.3v-0.3h-0.3v-0.3h-0.3v-0.3H142v-0.3
					h-0.3V93h-0.3v-0.3h-0.3v-0.3h-0.3v-0.3h-0.3v-0.3h-0.3v-0.3H140v-0.3h-0.3v-0.3h-0.3v-0.3h-0.3v-0.3h-0.3V90h-0.3v-0.3h-0.3
					v-0.3h-0.3v-0.3h-0.3V89h-0.3v-0.3H137v-0.3h-0.3v-0.3h-0.3v-0.3h-0.3v-0.3h-0.3v-0.3h-0.3v-0.3h-0.3v-0.3h-0.3v-0.3h-0.3V86
					h-0.3v-0.3H134v-0.3h-0.3v-0.3h-0.3v-0.3h-0.3v-0.3h-0.3v-0.3h0.2v-0.3h-0.3v-0.3h-0.3v-0.3h-0.3V83h-0.3v-0.3h-0.3v-0.3h-0.3
					v-0.3H131v-0.3h-0.3v-0.3h-0.3v-0.3h-0.3v-0.3h-0.3v-0.3h-0.3v-0.3h-0.3V80H129v-0.3h-0.3v-0.3h-0.3v-0.3h-0.3v-0.3h-0.3v-0.3
					h-0.2v-0.3h-0.3v-0.3H127v-0.3h-0.3v-0.3h-0.3V77h-0.3v-0.3h-0.3v-0.3h-0.3v-0.3h-0.3v-0.3H125v-0.3h-0.3v-0.3h-0.3v-0.3h-0.3
					v-0.3H124v-0.3h-0.3V74h-0.3v-0.3h-0.3v-0.3h-0.3v-0.3h-0.3v-0.3h-0.3v-0.2H122v-0.3h-0.3V72h-0.3v-0.3h-0.3v-0.3h-0.3v-0.3
					h-0.3v-0.3h-0.3v-0.3H120v-0.3h-0.3v-0.3h-0.3v-0.3h-0.3v-0.3h-0.3V69h-0.3v-0.3h-0.3v-0.3H118v-0.3h-0.3v-0.3h-0.3v-0.3h-0.3
					v-0.3h-0.3V68h-0.3v-0.3h-0.2v-0.3H116v-0.3h-0.3v-0.3h-0.3v-0.3h-0.3v-0.3h-0.3V66h-0.3v-0.3h-0.3v-0.3H114v-0.3h-0.3v-0.3
					h-0.3v-0.3h-0.3v-0.3h-0.3V64h-0.3v-0.3h-0.3v-0.3h-0.3v-0.3h-0.3v-0.3h-0.3v-0.3H111v-0.3h0V62h-0.3v-0.3h-0.3v-0.3h-0.3v-0.3
					h-0.3v-0.3h-0.3v-0.3h-0.3v-0.3H109V60h-0.3v-0.3h-0.3v-0.3h-0.3v-0.3h-0.3v-0.3h-0.3v-0.3h-0.3v-0.3H107V58h-0.3v-0.3h-0.3
					v-0.2h-0.3v-0.3h-0.3v-0.3h-0.3v-0.3h-0.3v-0.3H94.6c-10.9,0-18.7,6.5-18.7,18.8v10.7H62.5v13.4h0.3v0.3H63v0.3h0.3v0.3h0.3v0.3
					h0.3v0.3h0.3v0.3h0.3v0.3h0.3v0.3H65v0.3h0.3v0.3h0.3v0.3h0.3v0.3h0.2v0.3h0.3v0.3h0.3v0.3H67v0.3h0.3v0.3h0.3v0.3h0.3v0.3h0.3
					v0.3h0.3v0.3h0.3v0.3H69v0.3h0.3v0.3h0.3v0.3h0.3v0.2h0.3v0.3h0.3v0.3h0.3v0.3H71v0.3h0.3v0.3h0.3v0.3h0.3v0.3h0.3v0.3h0.3v0.3
					h0.3v0.3H73v0.3h0.3v0.3h0.3v0.3h0.3v0.3h0.3v0.3h0.3v0.3h-0.1v0.3h0.3v0.3H75v0.3h0.3v0.3h-0.1v24.5h0.3v0.3h0.3v0.3H76v0.3
					h0.3v0.3h0.3v0.3h0.3v0.3h0.3v0.3h0.3v0.3h0.3v0.3H78v0.3h0.3v0.3h0.3v0.3h0.3v0.3h0.3v0.3h0.3v0.3h0.3v0.3H80v0.3h0.3v0.3h0.3
					v0.3h0.3v0.3h0.3v0.3h0.3v0.3h0.3v0.3H82v0.3h0.3v0.3h0.3v0.3h0.3v0.3h0.3v0.3h0.3v0.3h0.3v0.3H84v0.3h0.3v0.3h0.3v0.3h0.3v0.3
					h0.3v0.3h0.3v0.3h0.3v0.3H86v0.3h0.3v0.3h0.3v0.3h0.3v0.3h0.3v0.3h0.3v0.3h0.3v0.3h0.3v0.3h0.3v0.3h0.3v0.3H89v0.3h0.3v0.3h0.3
					v0.3h0.3v0.3h0.3v0.3h0.3v0.3h0.3v0.3h0.3v0.3H91v0.3h0.3v0.3h0.3v0.3h0.3v0.3h0.3v0.3h0.3v0.3h0.3v0.3H93v0.2h0.3v0.3h0.3v0.3
					h0.3v0.3h0.3v0.3h0.3v0.3h0.3v0.3H95v0.3h0.3v0.3h0.3v0.3h0.3v0.3h0.3v0.3h0.3v0.3h0.3v0.3H97v0.3h0.4v0.3h0.3v0.3H98v0.3h0.3
					v0.3h0.3v0.3h0.3v0.3H99v0.3h0.3v0.3h0.3v0.3h0.3v0.3h0.3v0.3h0.3v0.3h0.3v0.3h0.3v0.3h0.3v0.3h0.3v0.3h0.3v0.3h0.3v0.4h0.3v0.3
					h0.3v0.3h0.3v0.3h0.3v0.3h0.3v0.3h0.3v0.3h0.3v0.3h0.3v0.3h0.3v0.3h0.3v0.2h0.3v0.3h0.3v0.3h0.3v0.3h0.3v0.3h0.3v0.3h0.3v0.3
					h0.3v0.3h0.3v0.3h0.3v0.3h0.3v0.3h0.3v0.3h0.3v0.3h0.3v0.3h0.3v0.3h0.3v0.3h0.3v0.3h0.3v0.3h0.3v0.3h0.3v0.3h0.3v0.3h0.3v0.3
					h0.3v0.3h0.3v0.3h0.3v0.3h0.3v0.3h0.3v0.3h0.3v0.3h0.3v0.3h0.3v0.3h0.3v0.3h0.3v0.3h0.3v0.3h0.3v0.3h0.3v0.3h0.3v0.3h0.3v0.3
					h0.3v0.3h0.3v0.3h0.3v0.3h0.3v0.3h0.3v0.3h0.3v0.3h0.3v0.3h0.3v0.3h0.3v0.3h0.3v0.3h0.3v0.3h0.3v0.3h0.3v0.3h0.3v0.3h0.4v0.3
					h0.3v0.3h0.3v0.3h0.3v0.3h0.3v0.3h0.3v0.3h0.3v0.3h0.3v0.3h0.3v0.3h0.3v0.3h0.3v0.3h0.3v0.3h0.3v0.3h0.3v0.3h0.3v0.3h0.3v0.3
					h0.3v0.3h0.3v0.3h0.3v0.3h0.3v0.3h0.3v0.3h0.3v0.3h0.3v0.3h0.3v0.3h0.3v0.4h0.3v0.3h0.3v0.3h0.3v0.3h0.3v0.3h0.3v0.3h0.3v0.2
					h0.3v0.3h0.3v0.3h0.3v0.3h0.2v0.3h0.3v0.3h0.3v0.3h0.3v0.3h0.3v0.3h0.3v0.3h0.3v0.3h0.3v0.3h0.3v0.3h0.3v0.3h0.3v0.3h0.3v0.3
					h0.3v0.3h0.3v0.3h0.3v0.3h0.3v0.3h0.3v0.4h0.3v0.3h0.3v0.3h0.3v0.3h0.3v0.3h0.3v0.3h0.3v0.3h0.3v0.3h0.3v0.3h0.3v0.3h0.3v0.3
					h0.3v0.3h0.3v0.3h0.3v0.3h0.3v0.3h0.3v0.3h0.3v0.3h0.3v0.3h0.3v0.3h0.3v0.3h0.3v0.3h0.3v0.3h0.3v0.3h0.3v0.3h0.3v0.3h0.3v0.3
					h0.3v0.3h0.3v0.3h0.3v0.3h0.3v0.2h0.3v0.3h0.3v0.3h0.3v0.3h0.3v0.3h0.3v0.3h0.3v0.3h0.3v0.3h0.3v0.3h0.3v0.3h0.3v0.3h0.3v0.3
					h0.3v0.3h0.3v0.3h0.3v0.3h0.3v0.3h0.3v0.3h0.3v0.3h0.3v0.3h0.3v0.3h0.3v0.3h0.3v0.3h0.3v0.3h0.3v0.3h0.3v0.3h0.3v0.3h0.3v0.3
					h0.3v0.3h0.3v0.3h0.3v0.3h0.3v0.3h0.3v0.3h0.3v0.3h0.3v0.3h0.3v0.3h0.3v0.3h0.3v0.3h0.3v0.3h0.3v0.3h0.3v0.3h0.2v0.3h0.3v0.3
					h0.3v0.3h0.3v0.3h0.3v0.3h0.3v0.3h0.3v0.3h0.3v0.3h0.3v0.3h0.3v0.3h0.3v0.3h0.3v0.3h0.3v0.3h0.3v0.3h0.3v0.3h0.5v0.3h0.3v0.3
					h0.3v0.3h0.3v0.3h0.3v0.3h0.3v0.2h0.3v0.3h0.3v0.3h0.3v0.3h0.3v0.3h0.3v0.3h0.3v0.4h16.1v-37.5H191l2.7-13.3h-0.3l0.1-0.3h-0.3
					l0.1-0.3H193l0.1-0.3h-0.3l0.1-0.3h-0.3l0.1-0.3h-0.3l0.1-0.3h-0.3v-0.3h-0.3l0.1-0.3h-0.2l0.1-0.3h-0.3l0.1-0.3h-0.3l0.1-0.3
					h-0.3l0.1-0.3H191l0.1-0.3h-0.3l0.1-0.3H186l0.1-0.3h-0.3l0.1-0.3h-0.3l0.1-0.3h-0.4l0.1-0.3h-0.3l0.1-0.3h-0.3l0.1-0.3h-0.3
					l0.1-0.3H184l0.1-0.3h-0.3l0.1-0.3h-0.4l0.1-0.3h-0.4l0.1-0.3H183l0.1-0.3h-0.3l0.1-0.3h-0.3l0.1-0.3H182l0.1-0.3h-0.3l0.1-0.3
					h-0.3l0.1-0.3h-0.4l0.1-0.3h-0.3l0.1-0.3h-0.3l0.1-0.3h-0.3l0.1-0.3H180l0.1-0.3h-0.3l0.1-0.3h-0.3l0.1-0.3h-0.4l0.1-0.3h-0.3
					l0.1-0.3h-0.3l0.1-0.3h-0.3l0.1-0.3H178l0.1-0.3h-0.3l0.1-0.3h-0.3l0.1-0.3h-0.3C177.9,156.2,180.2,155.4,185,155.4z"/>
			</g>
		</g>
	</g>
</g>
<path id="f" class="st3" d="M101.9,99.1l2.7-13.4H91.2V75c0-4.1,2.1-5.4,8-5.4h5.3V56.3H93.9C83,56.3,75.1,62.8,75.1,75v10.7H61.7
	v13.4h13.4v37.5h16.1V99.1H101.9L101.9,99.1z"/>
</svg>
