<?xml version="1.0" encoding="utf-8"?>
<!-- Generator: Adobe Illustrator 19.2.1, SVG Export Plug-In . SVG Version: 6.00 Build 0)  -->
<svg version="1.1" id="Layer_1" xmlns="http://www.w3.org/2000/svg" xmlns:xlink="http://www.w3.org/1999/xlink" x="0px" y="0px"
	 viewBox="0 0 177.7 189.8" style="enable-background:new 0 0 177.7 189.8;" xml:space="preserve">
<style type="text/css">
	.st0{fill:#282828;}
	.st1{clip-path:url(#SVGID_2_);}
	.st2{fill:url(#SVGID_3_);}
	.st3{fill:#FFFFFF;}
</style>
<title>github</title>
<ellipse id="Circle" class="st0" cx="86.8" cy="93.8" rx="64.2" ry="64.3"/>
<g id="Cat_Shadow">
	<g>
		<g>
			<defs>
				<ellipse id="SVGID_1_" cx="86.9" cy="93.8" rx="64.2" ry="64.3"/>
			</defs>
			<clipPath id="SVGID_2_">
				<use xlink:href="#SVGID_1_"  style="overflow:visible;"/>
			</clipPath>
			<g class="st1">
				
					<linearGradient id="SVGID_3_" gradientUnits="userSpaceOnUse" x1="1303.8066" y1="1311.465" x2="1163.3667" y2="1171.0149" gradientTransform="matrix(1 0 0 1 -1101.76 -1112.3101)">
					<stop  offset="0.53" style="stop-color:#000000;stop-opacity:0"/>
					<stop  offset="1" style="stop-color:#000000"/>
				</linearGradient>
				<path class="st2" d="M200.2,171.5c0-12-2.2-15.4-4.6-17.9c-0.1-0.1-0.2-0.2-0.3-0.3s-0.2-0.2-0.3-0.3s-0.2-0.2-0.3-0.3l0,0
					c0.6-1.4,2.8-6.2-0.1-13.4h-0.2c0-0.1-0.1-0.2-0.1-0.3h-0.2c0-0.1-0.1-0.2-0.1-0.3h-0.2c0-0.1-0.1-0.2-0.1-0.3h-0.2
					c0-0.1-0.1-0.2-0.1-0.3h-0.2c0-0.1-0.1-0.2-0.1-0.3h-0.2c0-0.1-0.1-0.2-0.1-0.3h0.2c0-0.1-0.1-0.2-0.1-0.3h-0.1
					c0-0.1-0.1-0.2-0.1-0.3h-0.2c0-0.1-0.1-0.2-0.1-0.3h-0.2c0-0.1-0.1-0.2-0.1-0.3H192c0-0.1-0.1-0.2-0.1-0.3h-0.2
					c0-0.1-0.1-0.2-0.1-0.3h-0.2c0-0.1-0.1-0.2-0.1-0.3h-0.2c0-0.1-0.1-0.2-0.1-0.3h-0.2c0-0.1-0.1-0.2-0.1-0.3h-0.2
					c0-0.1-0.1-0.2-0.1-0.3h-0.2c0-0.1-0.1-0.2-0.1-0.3h-0.2c0-0.1-0.1-0.2-0.1-0.3h-0.2c0-0.1-0.1-0.2-0.1-0.3h-0.2
					c0-0.1-0.1-0.2-0.1-0.3H189c0-0.1-0.1-0.2-0.1-0.3h0.1c0-0.1-0.1-0.2-0.1-0.3h-0.1c0-0.1-0.1-0.2-0.1-0.3h-0.2
					c0-0.1-0.1-0.2-0.1-0.3h-0.2c0-0.1-0.1-0.2-0.1-0.3H188c0-0.1-0.1-0.2-0.1-0.3h-0.1c0-0.1-0.1-0.2-0.1-0.3h-0.2
					c0-0.1-0.1-0.2-0.1-0.3h-0.2c0-0.1-0.1-0.2-0.1-0.3H187c0-0.1-0.1-0.2-0.1-0.3h-0.2c0-0.1-0.1-0.2-0.1-0.3h-0.2
					c0-0.1-0.1-0.2-0.1-0.3h-0.2c0-0.1-0.1-0.2-0.1-0.3h-0.2c0-0.1-0.1-0.2-0.1-0.3h-0.2c0-0.1-0.1-0.2-0.1-0.3h-0.2
					c0-0.1-0.1-0.2-0.1-0.3h-0.2c0-0.1-0.1-0.2-0.1-0.3h-0.2c0-0.1-0.1-0.2-0.1-0.3h-0.2c0-0.1-0.1-0.2-0.1-0.3H184
					c0-0.1-0.1-0.2-0.1-0.3h0.1c0-0.1-0.1-0.2-0.1-0.3h-0.1c0-0.1-0.1-0.2-0.1-0.3h-0.2c0-0.1-0.1-0.2-0.1-0.3h-0.2
					c0-0.1-0.1-0.2-0.1-0.3H183c0-0.1-0.1-0.2-0.1-0.3h-0.2c0-0.1-0.1-0.2-0.1-0.3h-0.2c0-0.1-0.1-0.2-0.1-0.3h-0.2
					c0-0.1-0.1-0.2-0.1-0.3h-0.2c0-0.1-0.1-0.2-0.1-0.3h-0.2c0-0.1-0.1-0.2-0.1-0.3h-0.2c0-0.1-0.1-0.2-0.1-0.3h-0.2
					c0-0.1-0.1-0.2-0.1-0.3h-0.2c0-0.1-0.1-0.2-0.1-0.3h-0.2c0-0.1-0.1-0.2-0.1-0.3H180c0-0.1-0.1-0.2-0.1-0.3h0.1
					c0-0.1-0.1-0.2-0.1-0.3h-0.2c0-0.1-0.1-0.2-0.1-0.3h-0.2c0-0.1-0.1-0.2-0.1-0.3h-0.2c0-0.1-0.1-0.2-0.1-0.3h0
					c0-0.1-0.1-0.2-0.1-0.3h-0.1c0-0.1-0.1-0.2-0.1-0.3h-0.2c0-0.1-0.1-0.2-0.1-0.3h-0.2c0-0.1-0.1-0.2-0.1-0.3H178
					c0-0.1-0.1-0.2-0.1-0.3h-0.2c0-0.1-0.1-0.2-0.1-0.3h-0.2c0-0.1-0.1-0.2-0.1-0.3h-0.2c0-0.1-0.1-0.2-0.1-0.3h-0.2
					c0-0.1-0.1-0.2-0.1-0.3h-0.2c0-0.1-0.1-0.2-0.1-0.3h-0.2c0-0.1-0.1-0.2-0.1-0.3h-0.2c0-0.1-0.1-0.2-0.1-0.3h-0.2
					c0-0.1-0.1-0.2-0.1-0.3h-0.2c0-0.1-0.1-0.2-0.1-0.3H175c0-0.1-0.1-0.2-0.1-0.3h0.1c0-0.1-0.1-0.2-0.1-0.3h-0.1
					c0-0.1-0.1-0.2-0.1-0.3h-0.2c0-0.1-0.1-0.2-0.1-0.3h-0.2c0-0.1-0.1-0.2-0.1-0.3H174c0-0.1-0.1-0.2-0.1-0.3h-0.2
					c0-0.1-0.1-0.2-0.1-0.3h-0.2c0-0.1-0.1-0.2-0.1-0.3h-0.2c0-0.1-0.1-0.2-0.1-0.3h-0.2c0-0.1-0.1-0.2-0.1-0.3h-0.2
					c0-0.1-0.1-0.2-0.1-0.3h-0.2c0-0.1-0.1-0.2-0.1-0.3h-0.2c0-0.1-0.1-0.2-0.1-0.3h-0.2c0-0.1-0.1-0.2-0.1-0.3h-0.2
					c0-0.1-0.1-0.2-0.1-0.3H171c0-0.1-0.1-0.2-0.1-0.3h0.1c0-0.1-0.1-0.2-0.1-0.3h-0.2c0-0.1-0.1-0.2-0.1-0.3h-0.2
					c0-0.1-0.1-0.2-0.1-0.3h-0.2c0-0.1-0.1-0.2-0.1-0.3h0c0-0.1-0.1-0.2-0.1-0.3h-0.1c0-0.1-0.1-0.2-0.1-0.3h-0.2
					c0-0.1-0.1-0.2-0.1-0.3h-0.2c0-0.1-0.1-0.2-0.1-0.3H169c0-0.1-0.1-0.2-0.1-0.3h-0.2c0-0.1-0.1-0.2-0.1-0.3h-0.2
					c0-0.1-0.1-0.2-0.1-0.3h-0.2c0-0.1-0.1-0.2-0.1-0.3h-0.2c0-0.1-0.1-0.2-0.1-0.3h-0.2c0-0.1-0.1-0.2-0.1-0.3h-0.2
					c0-0.1-0.1-0.2-0.1-0.3h-0.2c0-0.1-0.1-0.2-0.1-0.3h-0.2c0-0.1-0.1-0.2-0.1-0.3h-0.2c0-0.1-0.1-0.2-0.1-0.3H166
					c0-0.1-0.1-0.2-0.1-0.3h0.1c0-0.1-0.1-0.2-0.1-0.3h-0.1c0-0.1-0.1-0.2-0.1-0.3h-0.2c0-0.1-0.1-0.2-0.1-0.3h-0.2
					c0-0.1-0.1-0.2-0.1-0.3H165c0-0.1-0.1-0.2-0.1-0.3h-0.2c0-0.1-0.1-0.2-0.1-0.3h-0.2c0-0.1-0.1-0.2-0.1-0.3h-0.2
					c0-0.1-0.1-0.2-0.1-0.3h-0.2c0-0.1-0.1-0.2-0.1-0.3h-0.2c0-0.1-0.1-0.2-0.1-0.3h-0.2c0-0.1-0.1-0.2-0.1-0.3h-0.2
					c0-0.1-0.1-0.2-0.1-0.3h-0.2c0-0.1-0.1-0.2-0.1-0.3h-0.2c0-0.1-0.1-0.2-0.1-0.3H162c0-0.1-0.1-0.2-0.1-0.3h0.1
					c0-0.1-0.1-0.2-0.1-0.3h-0.1c0-0.1-0.1-0.2-0.1-0.3h-0.2c0-0.1-0.1-0.2-0.1-0.3h-0.2c0-0.1-0.1-0.2-0.1-0.3H161
					c0-0.1-0.1-0.2-0.1-0.3h-0.1c0-0.1-0.1-0.2-0.1-0.3h-0.2c0-0.1-0.1-0.2-0.1-0.3h-0.2c0-0.1-0.1-0.2-0.1-0.3H160
					c0-0.1-0.1-0.2-0.1-0.3h-0.2c0-0.1-0.1-0.2-0.1-0.3h-0.2c0-0.1-0.1-0.2-0.1-0.3h-0.2c0-0.1-0.1-0.2-0.1-0.3h-0.2
					c0-0.1-0.1-0.2-0.1-0.3h-0.2c0-0.1-0.1-0.2-0.1-0.3h-0.2c0-0.1-0.1-0.2-0.1-0.3h-0.2c0-0.1-0.1-0.2-0.1-0.3h-0.2
					c0-0.1-0.1-0.2-0.1-0.3h-0.2c0-0.1-0.1-0.2-0.1-0.3H157c0-0.1-0.1-0.2-0.1-0.3h0.1c0-0.1-0.1-0.2-0.1-0.3h-0.1
					c0-0.1-0.1-0.2-0.1-0.3h-0.2c0-0.1-0.1-0.2-0.1-0.3h-0.2c0-0.1-0.1-0.2-0.1-0.3H156c0-0.1-0.1-0.2-0.1-0.3h-0.2
					c0-0.1-0.1-0.2-0.1-0.3h-0.2c0-0.1-0.1-0.2-0.1-0.3h-0.2c0-0.1-0.1-0.2-0.1-0.3h-0.2c0-0.1-0.1-0.2-0.1-0.3h-0.2
					c0-0.1-0.1-0.2-0.1-0.3h-0.2c0-0.1-0.1-0.2-0.1-0.3h-0.2c0-0.1-0.1-0.2-0.1-0.3h-0.2c0-0.1-0.1-0.2-0.1-0.3h-0.2
					c0-0.1-0.1-0.2-0.1-0.3H153c0-0.1-0.1-0.2-0.1-0.3h0.1c0-0.1-0.1-0.2-0.1-0.3h-0.2c0-0.1-0.1-0.2-0.1-0.3h-0.2
					c0-0.1-0.1-0.2-0.1-0.3h-0.2c0-0.1-0.1-0.2-0.1-0.3h0c0-0.1-0.1-0.2-0.1-0.3h-0.1c0-0.1-0.1-0.2-0.1-0.3h-0.2
					c0-0.1-0.1-0.2-0.1-0.3h-0.2c0-0.1-0.1-0.2-0.1-0.3H151c0-0.1-0.1-0.2-0.1-0.3h-0.2c0-0.1-0.1-0.2-0.1-0.3h-0.2
					c0-0.1-0.1-0.2-0.1-0.3h-0.2c0-0.1-0.1-0.2-0.1-0.3h-0.2c0-0.1-0.1-0.2-0.1-0.3h-0.2c0-0.1-0.1-0.2-0.1-0.3h-0.2
					c0-0.1-0.1-0.2-0.1-0.3h-0.2c0-0.1-0.1-0.2-0.1-0.3h-0.2c0-0.1-0.1-0.2-0.1-0.3h-0.2c0-0.1-0.1-0.2-0.1-0.3H148
					c0-0.1-0.1-0.2-0.1-0.3h0.1c0-0.1-0.1-0.2-0.1-0.3h-0.1c0-0.1-0.1-0.2-0.1-0.3h-0.2c0-0.1-0.1-0.2-0.1-0.3h-0.2
					c0-0.1-0.1-0.2-0.1-0.3H147c0-0.1-0.1-0.2-0.1-0.3h-0.2c0-0.1-0.1-0.2-0.1-0.3h-0.2c0-0.1-0.1-0.2-0.1-0.3h-0.2
					c0-0.1-0.1-0.2-0.1-0.3h-0.2c0-0.1-0.1-0.2-0.1-0.3h-0.2c0-0.1-0.1-0.2-0.1-0.3h-0.2c0-0.1-0.1-0.2-0.1-0.3h-0.2
					c0-0.1-0.1-0.2-0.1-0.3h-0.2c0-0.1-0.1-0.2-0.1-0.3h-0.2c0-0.1-0.1-0.2-0.1-0.3H144c0-0.1-0.1-0.2-0.1-0.3h0.1
					c0-0.1-0.1-0.2-0.1-0.3h-0.2c0-0.1-0.1-0.2-0.1-0.3h-0.2c0-0.1-0.1-0.2-0.1-0.3h-0.2c0-0.1-0.1-0.2-0.1-0.3h0
					c0-0.1-0.1-0.2-0.1-0.3h-0.1c0-0.1-0.1-0.2-0.1-0.3h-0.2c0-0.1-0.1-0.2-0.1-0.3h-0.2c0-0.1-0.1-0.2-0.1-0.3H142
					c0-0.1-0.1-0.2-0.1-0.3h-0.2c0-0.1-0.1-0.2-0.1-0.3h-0.2c0-0.1-0.1-0.2-0.1-0.3h-0.2c0-0.1-0.1-0.2-0.1-0.3h-0.2
					c0-0.1-0.1-0.2-0.1-0.3h-0.2c0-0.1-0.1-0.2-0.1-0.3h-0.2c0-0.1-0.1-0.2-0.1-0.3h-0.2c0-0.1-0.1-0.2-0.1-0.3h-0.2
					c0-0.1-0.1-0.2-0.1-0.3h-0.2c0-0.1-0.1-0.2-0.1-0.3H139c0-0.1-0.1-0.2-0.1-0.3h0.1c0-0.1-0.1-0.2-0.1-0.3h-0.1
					c0-0.1-0.1-0.2-0.1-0.3h-0.2c0-0.1-0.1-0.2-0.1-0.3h-0.2c0-0.1-0.1-0.2-0.1-0.3H138c0-0.1-0.1-0.2-0.1-0.3h-0.2
					c0-0.1-0.1-0.2-0.1-0.3h-0.2c0-0.1-0.1-0.2-0.1-0.3h-0.2c0-0.1-0.1-0.2-0.1-0.3h-0.2c0-0.1-0.1-0.2-0.1-0.3h-0.2
					c0-0.1-0.1-0.2-0.1-0.3h-0.2c0-0.1-0.1-0.2-0.1-0.3h-0.2c0-0.1-0.1-0.2-0.1-0.3h-0.2c0-0.1-0.1-0.2-0.1-0.3h-0.2
					c0-0.1-0.1-0.2-0.1-0.3H135c0-0.1-0.1-0.2-0.1-0.3h0.1c0-0.1-0.1-0.2-0.1-0.3h-0.2c0-0.1-0.1-0.2-0.1-0.3h-0.2
					c0-0.1-0.1-0.2-0.1-0.3h-0.2c0-0.1-0.1-0.2-0.1-0.3h0c0-0.1-0.1-0.2-0.1-0.3h-0.2c0-0.1-0.1-0.2-0.1-0.3h-0.2
					c0-0.1-0.1-0.2-0.1-0.3h-0.2c0-0.1-0.1-0.2-0.1-0.3h-0.2c0-0.1-0.1-0.2-0.1-0.3h-0.2c0-0.1-0.1-0.2-0.1-0.3h-0.2
					c0-0.1-0.1-0.2-0.1-0.3h-0.2c0-0.1-0.1-0.2-0.1-0.3h-0.2c0-0.1-0.1-0.2-0.1-0.3h-0.2c0-0.1-0.1-0.2-0.1-0.3H131
					c0-0.1-0.1-0.2-0.1-0.3h0.1c0-0.1-0.1-0.2-0.1-0.3h-0.2c0-0.1-0.1-0.2-0.1-0.3h-0.2c0-0.1-0.1-0.2-0.1-0.3h-0.2
					c0-0.1-0.1-0.2-0.1-0.3h0c0-0.1-0.1-0.2-0.1-0.3h-0.1c0-0.1-0.1-0.2-0.1-0.3h-0.2c0-0.1-0.1-0.2-0.1-0.3h-0.2
					c0-0.1-0.1-0.2-0.1-0.3H129c0-0.1-0.1-0.2-0.1-0.3h-0.2c0-0.1-0.1-0.2-0.1-0.3h-0.2c0-0.1-0.1-0.2-0.1-0.3h-0.2
					c0-0.1-0.1-0.2-0.1-0.3h-0.2c0-0.1-0.1-0.2-0.1-0.3h-0.2c0-0.1-0.1-0.2-0.1-0.3h-0.2c0-0.1-0.1-0.2-0.1-0.3h-0.2
					c0-0.1-0.1-0.2-0.1-0.3h-0.2c0-0.1-0.1-0.2-0.1-0.3h-0.2c0-0.1-0.1-0.2-0.1-0.3H126c0-0.1-0.1-0.2-0.1-0.3h0.1
					c0-0.1-0.1-0.2-0.1-0.3h-0.2c0-0.1-0.1-0.2-0.1-0.3h-0.2c0-0.1-0.1-0.2-0.1-0.3h-0.2c0-0.1-0.1-0.2-0.1-0.3h0
					c0-0.1-0.1-0.2-0.1-0.3h-0.1c0-0.1-0.1-0.2-0.1-0.3h-0.2c0-0.1-0.1-0.2-0.1-0.3h-0.2c0-0.1-0.1-0.2-0.1-0.3H124
					c0-0.1-0.1-0.2-0.1-0.3h-0.2c0-0.1-0.1-0.2-0.1-0.3h-0.2c0-0.1-0.1-0.2-0.1-0.3h-0.2c0-0.1-0.1-0.2-0.1-0.3h-0.2
					c0-0.1-0.1-0.2-0.1-0.3h-0.2c0-0.1-0.1-0.2-0.1-0.3h-0.2c0-0.1-0.1-0.2-0.1-0.3h-0.2c0-0.1-0.1-0.2-0.1-0.3h-0.2
					c0-0.1-0.1-0.2-0.1-0.3h-0.2c0-0.1-0.1-0.2-0.1-0.3H121c0-0.1-0.1-0.2-0.1-0.3h0.1c0-0.1-0.1-0.2-0.1-0.3h-0.1
					c0-0.1-0.1-0.2-0.1-0.3h-0.2c0-0.1-0.1-0.2-0.1-0.3h-0.2c0-0.1-0.1-0.2-0.1-0.3H120c0-0.1-0.1-0.2-0.1-0.3h-0.2
					c0-0.1-0.1-0.2-0.1-0.3h-0.2c0-0.1-0.1-0.2-0.1-0.3h-0.2c0-0.1-0.1-0.2-0.1-0.3h-0.2c0-0.1-0.1-0.2-0.1-0.3h-0.2
					c0-0.1-0.1-0.2-0.1-0.3h-0.2c0-0.1-0.1-0.2-0.1-0.3h-0.2c0-0.1-0.1-0.2-0.1-0.3h-0.2c0-0.1-0.1-0.2-0.1-0.3h-0.2
					c0-0.1-0.1-0.2-0.1-0.3H117c0-0.1-0.1-0.2-0.1-0.3h0.1c0-0.1-0.1-0.2-0.1-0.3h-0.2c0-0.1-0.1-0.2-0.1-0.3h-0.2
					c0-0.1-0.1-0.2-0.1-0.3h-0.2c0-0.1-0.1-0.2-0.1-0.3h0c0-0.1-0.1-0.2-0.1-0.3h-0.1c0-0.1-0.1-0.2-0.1-0.3h-0.2
					c0-0.1-0.1-0.2-0.1-0.3h-0.2c0-0.1-0.1-0.2-0.1-0.3s-5.3,0-10.6,8c-2.7-2.6-10.7-2.7-13.4-2.7S80.9,57,78,59.5l-0.1-0.1
					l-0.3-0.3l-0.3-0.3L77,58.5l-0.3-0.3l-0.3-0.3l-0.3-0.3L76,57.4l-0.2-0.3l-0.3-0.3l-0.2-0.3L75,56.2c-4.7-5-8.3-5-8.3-5
					c-2.9,7.2-0.6,12.1-0.1,13.4c-2.7,2.7-5.4,5.4-5.4,18.8c-0.2,5.2,1.7,10.2,5.1,14l0.3,0.3l0.3,0.3l0.3,0.3l0.3,0.3l0.3,0.3
					l0.3,0.3l0.3,0.3l0.3,0.3l0.3,0.3l0.3,0.3l0.3,0.3l0.3,0.3l0.3,0.3l0.3,0.3l0.3,0.3l0.3,0.3l0.2,0.3l0.3,0.3l0.3,0.3l0.3,0.3
					l0.3,0.3l0.3,0.3l0.3,0.3l0.3,0.3l0.3,0.3l0.3,0.3l0.3,0.3l0.3,0.3l0.3,0.3l0.3,0.3l0.3,0.3l0.3,0.3l0.3,0.3l0.3,0.3l0.3,0.3
					l0.3,0.3l0.3,0.3l0.3,0.3l0.3,0.3l0.3,0.3l0.3,0.3l0.3,0.3l0.3,0.3l0.2,0.3l0.3,0.3l0.3,0.3l0.3,0.3l0.2,0.3l0.3,0.3l0.3,0.3
					l0.3,0.3l0.1,0.1c0,0.3,0,0.5,0,0.8c-3.5,1.4-7.4,1.3-10.8-0.3l-0.1-0.1l-0.3-0.3l-0.3-0.3c-0.1-0.1-0.2-0.2-0.3-0.3l-0.3-0.3
					l-0.3-0.3l-0.3-0.3l-0.3-0.3l-0.3-0.3l-0.3-0.3l-0.2-0.3l-0.3-0.3l-0.3-0.3l-0.3-0.3l-0.3-0.3l-0.3-0.3l-0.3-0.3l-0.3-0.3
					l-0.3-0.3l-0.3-0.3l-0.3-0.3c-0.1-0.1-0.2-0.2-0.3-0.3l-0.3-0.3l-0.3-0.3l-0.3-0.3l-0.3-0.3l-0.3-0.3c-1.6-1.8-3.8-2.9-6.2-2.9
					c0,0-3.7-0.3-1.9,1.4c0.1,0.1,0.2,0.2,0.3,0.3c0.2,0.2,0.4,0.4,0.5,0.6c0.1,0.1,0.2,0.2,0.3,0.3c0.1,0.1,0.2,0.2,0.3,0.3
					c0.1,0.1,0.2,0.2,0.3,0.3c0.1,0.1,0.2,0.2,0.3,0.3c0.1,0.1,0.2,0.2,0.3,0.3c0.1,0.1,0.2,0.2,0.2,0.3c0.1,0.1,0.2,0.2,0.3,0.3
					c0.1,0.1,0.2,0.2,0.3,0.3c0.1,0.1,0.2,0.2,0.3,0.3c0.1,0.1,0.2,0.2,0.3,0.3c0.1,0.1,0.2,0.2,0.3,0.3c0.2,0.2,0.4,0.4,0.5,0.6
					c0.1,0.1,0.2,0.2,0.3,0.3c0.1,0.1,0.2,0.2,0.2,0.3c0.9,1.4,1.7,2.8,2.4,4.2c0.7,1.6,1.7,3.1,2.9,4.3l0.3,0.3l0.3,0.3l0.3,0.3
					l0.3,0.3l0.3,0.3l0.2,2.7l0.3,0.3l0.3,0.3c0.1,0.1,0.2,0.2,0.3,0.3l0.2,0.3l0.3,0.3l0.3,0.3l0.3,0.3l0.3,0.3l0.3,0.3l0.3,0.3
					l0.2,0.3c0.1,0.1,0.2,0.2,0.3,0.3l0.3,0.3l0.3,0.3l0.3,0.3l0.3,0.3l0.3,0.3l0.2,0.3l0.3,0.3l0.2,0.3l0.3,0.3l0.3,0.3l0.3,0.3
					c0.1,0.1,0.2,0.2,0.3,0.3l0.3,0.3l0.3,0.3l0.3,0.3l0.3,0.3l0.3,0.3l0.3,0.3l-1.3-1l0.3,0.3l0.3,0.3l0.2,0.3l0.3,0.3l0.2,0.3
					l0.3,0.3l0.2,0.3l0.3,0.3l0.3,0.3c0.1,0.1,0.2,0.2,0.3,0.3l0.3,0.3l0.3,0.3l0.3,0.3l0.3,0.3l0.3,0.3l0.3,0.3l0.2,0.2l0.3,0.3
					l0.2,0.3l0.3,0.3l0.2,0.3l0.3,0.3l0.3,0.3l0.2,0.3l0.3,0.3l0.2,0.2l0.3,0.3l0.3,0.3l0.3,0.3l0.3,0.3l0.2,0.3l0.3,0.3l0.2,0.3
					l0.3,0.3l0.3,0.3l0.3,0.3l0.3,0.3l0.3,0.3l0.3,0.3l0.3,0.3l0.3,0.3l0.2,0.3l0.3,0.3L86,143l0.3,0.3l0.3,0.3l0.2,0.3l0.3,0.3
					l0.3,0.3l0.3,0.3l0.3,0.3l0.3,0.3l0.3,0.3l0.2,0.3l0.3,0.3l0.3,0.3c0.1,0.1,0.2,0.2,0.3,0.3s0.2,0.2,0.3,0.3l0.3,0.3l0.3,0.3
					l0.2,0.3l0.3,0.3l0.3,0.3l0.2,0.3l0.3,0.3l0.3,0.3l0.3,0.3l0.3,0.3l0.3,0.3l0.2,0.3l0.3,0.3l0.3,0.3c0.1,0.1,0.2,0.2,0.3,0.3
					s0.2,0.2,0.3,0.3s0.2,0.2,0.3,0.3c0.1,0.1,0.2,0.2,0.3,0.3l0.3,0.3l0.3,0.3l0.3,0.3l0.3,0.3l0.3,0.3l0.3,0.3
					c0.1,0.1,0.2,0.2,0.3,0.3l0.3,0.3c0.1,0.1,0.2,0.2,0.3,0.3l0.3,0.3c0.1,0.1,0.2,0.2,0.3,0.3l0.3,0.3l0.2,0.3l0.3,0.3l0.2,0.3
					l0.3,0.3l0.2,0.3c0.1,0.1,0.2,0.2,0.3,0.3l0.3,0.3l0.3,0.3c0.1,0.1,0.2,0.2,0.3,0.3s0.2,0.2,0.3,0.3l0.3,0.3l0.2,0.3l0.3,0.3
					l0.3,0.3l0.2,0.3l0.3,0.3l0.2,0.3l0.3,0.3l0.2,0.3l0.3,0.3l0.3,0.3c0.1,0.1,0.2,0.2,0.3,0.3s0.2,0.2,0.3,0.3l0.3,0.3l0.3,0.3
					l0.3,0.3l0.3,0.3l0.3,0.3c0.1,0.1,0.2,0.2,0.3,0.3s0.2,0.2,0.3,0.3l0.3,0.3l0.3,0.3l0.2,0.3l0.3,0.3l0.3,0.3
					c0.1,0.1,0.2,0.2,0.3,0.3s0.2,0.2,0.3,0.3l0.2,0.3l0.3,0.3l0.2,0.3l0.3,0.3l0.2,0.3l0.3,0.3l0.3,0.3l0.3,0.3l0.3,0.3l0.2,0.3
					l0.3,0.3l0.2,0.3l0.3,0.3c0.1,0.1,0.2,0.2,0.3,0.3s0.2,0.2,0.3,0.3s0.2,0.2,0.3,0.3l0.3,0.3l0.3,0.3l0.3,0.3
					c0.1,0.1,0.2,0.2,0.3,0.3l0.3,0.3l0.3,0.3l0.3,0.3l0.3,0.3l0.3,0.3l0.3,0.3l0.3,0.3l0.3,0.3l0.2,0.3l0.3,0.3l0.2,0.3l0.3,0.3
					l0.2,0.3l0.3,0.3l0.2,0.3l0.3,0.3l0.3,0.3l0.3,0.3l0.3,0.3l0.2,0.3c0.1,0.1,0.2,0.2,0.3,0.3s0.2,0.2,0.3,0.3s0.2,0.2,0.3,0.3
					l0.3,0.3l0.3,0.3l0.3,0.3l0.3,0.3l0.3,0.3c0.1,0.1,0.2,0.2,0.3,0.3s0.2,0.2,0.3,0.3s0.2,0.2,0.3,0.3l0.2,0.3
					c0.1,0.1,0.2,0.2,0.3,0.3l0.3,0.3l0.3,0.3l0.3,0.3c0.1,0.1,0.2,0.2,0.3,0.3c0.1,0.1,0.2,0.2,0.3,0.3l0.3,0.3l0.3,0.3
					c0.1,0.1,0.2,0.2,0.3,0.3s0.2,0.2,0.3,0.3l0.3,0.3l0.2,0.3c0.1,0.1,0.2,0.2,0.3,0.3s0.2,0.2,0.3,0.3s0.2,0.2,0.3,0.3l0.2,0.3
					l0.3,0.3l0.2,0.3l0.3,0.3l0.3,0.3c0.1,0.1,0.2,0.2,0.3,0.3s0.2,0.2,0.3,0.3l0.3,0.3l0.3,0.3c0.1,0.1,0.2,0.2,0.3,0.3l0.3,0.3
					l0.3,0.3c0.1,0.1,0.2,0.2,0.3,0.3l0.3,0.3c0.1,0.1,0.2,0.2,0.3,0.3l0.3,0.3l0.3,0.3l0.3,0.3l0.3,0.3l0.3,0.3l0.3,0.3
					c0.1,0.1,0.2,0.2,0.3,0.3l0.3,0.3c0.1,0.1,0.2,0.2,0.3,0.3l0.3,0.3l0.3,0.3l0.3,0.3l0.3,0.3l0.3,0.3l0.3,0.3l0.3,0.3
					c0.1,0.1,0.2,0.2,0.3,0.3l0.2,0.3c0.1,0.1,0.2,0.2,0.3,0.3l0.3,0.3c0.1,0.1,0.2,0.2,0.3,0.3l0.3,0.3l0.2,0.3l0.3,0.3l0.2,0.3
					c0.1,0.1,0.2,0.2,0.3,0.3l0.3,0.3l0.3,0.3c0.1,0.1,0.2,0.2,0.3,0.3s0.2,0.2,0.3,0.3l0.3,0.3l0.3,0.3c0.1,0.1,0.2,0.2,0.3,0.3
					l0.3,0.3l0.3,0.3l0.3,0.3c0.1,0.1,0.2,0.2,0.3,0.3l0.3,0.3l0.3,0.3c0.1,0.1,0.2,0.2,0.3,0.3l0.2,0.3c0.1,0.1,0.2,0.2,0.3,0.3
					l0.3,0.3c0.1,0.1,0.2,0.2,0.3,0.3l0.3,0.3l0.3,0.3c0.1,0.1,0.2,0.2,0.3,0.3l0.2,0.3l0.3,0.3l0.3,0.3l0.3,0.3
					c0.1,0.1,0.2,0.2,0.3,0.3l0.3,0.3l0.3,0.3l0.2,0.3l0.3,0.3c1.6,1.7,3.7,3,5.9,3.7v0.1h0.3v0.3h0.3v0.3h0.3v0.3h0.3v0.3h0.3v0.3
					h0.3v0.3h0.3v0.3h0.3v0.3h0.3v0.3h0.3v0.3h0.3v0.3h0.3v0.3h0.1v0.3h0.3v0.3h0.3v0.3h0.3v0.3h0.3c0,0.2,0,0.3,0,0.3h0.3v0.3h0.3
					v0.3h0.3v0.3h0.3v0.3h0.3v0.3h0.3v0.3h0.3v0.3h0.3v0.3h0.3v0.3h0.3v0.3h0.2v0.3h0.3v0.3h0.3v0.3h0.3v0.3h0.3v0.3h0.3v0.3h0.3
					v0.3h0.3v0.3h0.3v0.3h0.3v0.3h0.3v0.3h21.4v-18.8c0-2.1-1.2-6.7-2.7-8C190.5,191.6,200.2,184.9,200.2,171.5z"/>
			</g>
		</g>
	</g>
</g>
<path id="Cat" class="st3" d="M101.3,134H79.9c0,0,0-6.4,0-10.7c-14.7,3.2-18.7-8-18.7-8c-1.4-2.9-3.2-5.6-5.3-8
	c-5.3-3.2,0-2.7,0-2.7c5.3,0,8,5.4,8,5.4c4.7,8,13.1,6.7,16.1,5.4c0-2.7,1.2-6.7,2.7-8c-11.7-1.3-21.4-8-21.4-21.4
	s2.7-16.1,5.4-18.8c-0.5-1.3-2.8-6.2,0.1-13.4c0,0,5.3,0,10.6,8c2.7-2.6,10.7-2.7,13.4-2.7s10.7,0,13.4,2.7c5.3-8,10.6-8,10.6-8
	c2.9,7.2,0.6,12.1,0.1,13.4c2.7,2.7,5.3,5.4,5.3,18.8s-9.7,20.1-21.4,21.4c1.5,1.3,2.7,5.9,2.7,8L101.3,134L101.3,134L101.3,134z"/>
</svg>
