<?xml version="1.0" encoding="utf-8"?>
<!-- Generator: Adobe Illustrator 19.2.1, SVG Export Plug-In . SVG Version: 6.00 Build 0)  -->
<svg version="1.1" id="Layer_1" xmlns="http://www.w3.org/2000/svg" xmlns:xlink="http://www.w3.org/1999/xlink" x="0px" y="0px"
	 viewBox="0 0 190.1 190.2" style="enable-background:new 0 0 190.1 190.2;" xml:space="preserve">
<style type="text/css">
	.st0{fill:#E13719;}
	.st1{clip-path:url(#SVGID_2_);}
	.st2{opacity:0.4;fill:url(#SVGID_3_);enable-background:new    ;}
	.st3{fill:#FFFFFF;}
</style>
<title>gmail</title>
<ellipse id="Circle" class="st0" cx="93.7" cy="93.8" rx="64.2" ry="64.3"/>
<g id="Shadow">
	<g>
		<g>
			<defs>
				<circle id="SVGID_1_" cx="93.7" cy="93.8" r="64.3"/>
			</defs>
			<clipPath id="SVGID_2_">
				<use xlink:href="#SVGID_1_"  style="overflow:visible;"/>
			</clipPath>
			<g class="st1">
				
					<linearGradient id="SVGID_3_" gradientUnits="userSpaceOnUse" x1="331.5673" y1="1312.8052" x2="193.8851" y2="1175.1229" gradientTransform="matrix(1 0 0 1 -134.62 -1109.6899)">
					<stop  offset="0.53" style="stop-color:#000000;stop-opacity:0"/>
					<stop  offset="1" style="stop-color:#000000"/>
				</linearGradient>
				<path class="st2" d="M219.3,174.1v-0.3H219v-0.3h-0.3v-0.3h-0.3V173h-0.3v-0.3h-0.3v-0.3h-0.3v-0.3h-0.3v-0.3H217v-0.3h-0.3
					v-0.3h-0.3V171h-0.3v-0.3h-0.3v-0.3h-0.3v-0.3h-0.3v-0.3H215v-0.3h-0.3v-0.3h-0.3V169h-0.3v-0.3h-0.3v-0.3h-0.3v-0.3h-0.3v-0.3
					h-0.3v-0.3h-0.3v-0.3h-0.3v-0.3H212v-0.3h0v-0.3h-0.3V166h-0.3v-0.3h-0.3v-0.3h-0.3v-0.3h-0.3V165h-0.3v-0.3h-0.4v-0.3h-0.3
					v-0.3h-0.3v-0.3H209v-0.3h-0.2v-0.2h-0.1v-0.1h-0.2V163h-0.1v0h-0.2v-0.2h-0.1v-0.1H208v-0.2h-0.1v-0.1h-0.2v-0.2h-0.1v-0.1
					h-0.2V162h-0.1v-0.1h-0.2v-0.2H207v-0.1h-0.2v-0.2h-0.1v-0.1h-0.2v-0.2h-0.1V161h-0.2v-0.2h-0.1v-0.1H206v-0.2h-0.1v-0.1h-0.2
					v-0.2h-0.1v-0.1h-0.2V160h-0.1v-0.1h-0.2v-0.2H205v-0.1h-0.2v-0.2h-0.1v-0.1h-0.2v-0.2h-0.1V159h-0.2v-0.2h-0.1v-0.1H204v-0.2
					h-0.1v-0.1h-0.2v-0.2h-0.1v-0.1h-0.2V158h-0.1v-0.1h-0.2v-0.2H203v-0.1h-0.2v-0.2h-0.1v-0.1h-0.2v-0.2h-0.1V157h-0.2v-0.2h-0.1
					v-0.1H202v-0.2h-0.1v-0.1h-0.2v-0.2h-0.1v-0.1h-0.2v-0.2h-0.1v0.1h-0.2v-0.2H201v-0.1h-0.1v-0.2h-0.1v-0.1h-0.2v-0.2h-0.1v-0.1
					h-0.2v-0.2h-0.1v-0.1H200v-0.2h-0.1v-0.1h-0.1v-0.2h-0.1v-0.1h-0.2V154h-0.1v-0.1h-0.2v-0.1h-0.1v-0.1h-0.2v-0.2h-0.1v-0.1h-0.2
					v-0.2h-0.1v-0.1h-0.2v-0.2h-0.1v-0.1H198v-0.2h-0.1v-0.1h-0.1v-0.2h-0.1v-0.1h-0.2V152h-0.1v-0.1h-0.2v-0.1h-0.1v-0.1h-0.2v-0.2
					h-0.1v-0.1h-0.2v-0.2h-0.1v-0.1h-0.2V151h-0.1v-0.2H196v-0.2h-0.1v-0.1h-0.1v-0.2h-0.1v-0.1h-0.2V150h-0.1v-0.1h-0.2v-0.1h-0.1
					v-0.1h-0.2v-0.2h-0.1v-0.1h-0.2v-0.2h-0.1v-0.1h-0.2v-0.2h-0.1v-0.1H194v-0.2h-0.1v-0.1h-0.1v-0.2h-0.1v-0.1h-0.2V148h-0.1v0
					h-0.2v-0.2h-0.1v-0.1h-0.2v-0.2h-0.1v-0.1h-0.2v-0.2h-0.1v-0.1h-0.2v-0.2h-0.1v-0.1H192v-0.2h-0.1v-0.1h-0.1v-0.2h-0.1v-0.1
					h-0.2V146h-0.1v0h-0.2v-0.2h-0.1v-0.1h-0.2v-0.2h-0.1v-0.1h-0.2v-0.2h-0.1v-0.1h-0.2v-0.2h-0.1v-0.1H190v-0.2h-0.1v-0.1h-0.1
					v-0.2h-0.1v-0.1h-0.2V144h-0.1v0h-0.2v-0.2h-0.1v-0.1h-0.2v-0.2h-0.1v-0.1h-0.2v-0.2h-0.1v-0.1h-0.2v-0.2h-0.1v-0.1H188v-0.2
					h-0.1v-0.1h-0.1v-0.2h-0.1v-0.1h-0.2V142h-0.1v0h-0.2v-0.2h-0.1v-0.1h-0.2v-0.2h-0.1v-0.1h-0.2v-0.2l0,0l4.5-1.9h-1l0.7-0.3h-1
					l0.7-0.3h-1l0.7-0.3h-1l0.7-0.3h-1l0.7-0.3h-1l0.7-0.3h-1l0.7-0.3h-1l0.7-0.3h-1l0.7-0.3h-1l0.7-0.3h-1l0.7-0.3h-1l0.7-0.3h-1
					l0.7-0.3h-1l0.7-0.3h-1l0.7-0.3h-1l0.7-0.3h-1l0.7-0.3h-1l0.7-0.3h-1l0.7-0.3h-1l0.7-0.3h-1l0.7-0.3h-1l0.7-0.3h-1l0.7-0.3h-1
					l0.7-0.3h-1l0.7-0.3h-1l0.7-0.3h-1l0.7-0.3h-1l0.7-0.3h-1l0.7-0.3h-1l0.7-0.3h-1l0.7-0.3h-1l0.7-0.3h-1l0.7-0.3h-1l0.7-0.3h-1
					l0.7-0.3h-1l0.7-0.3h-1l0.7-0.3h-1l0.7-0.3h-1l0.7-0.3h-1l0.7-0.3h-1l0.7-0.3h-1l0.7-0.3h-1l0.7-0.3h-1l0.7-0.3h-1l0.7-0.3h-1
					l0.7-0.3h-1l0.7-0.3h-1l0.7-0.3h-1l0.7-0.3h-1l0.7-0.3h-1l0.7-0.3h-1l0.7-0.3h-1l0.7-0.3h-1l0.7-0.3h-1l0.7-0.3h-1l0.7-0.3h-1
					l0.7-0.3h-1l0.7-0.3h-1l0.7-0.3h-1l0.7-0.3h-1l0.7-0.3h-1l0.7-0.3h-1l0.7-0.3h-1l0.7-0.3h-1l0.5-0.4h-1l0.7-0.3h-1l0.7-0.3h-1
					l0.7-0.3h-1l0.7-0.3h-1l0.7-0.3h-1l0.7-0.3h-1l0.7-0.3h-1l0.7-0.3h-1l0.7-0.3h-1l0.7-0.3h-1l0.7-0.3h-1l0.7-0.3h-1l0.7-0.3h-1
					l0.7-0.3h-1l0.7-0.3h-1l0.7-0.3h-1l0.7-0.3h-1l0.7-0.3h-1l0.7-0.3h-1l0.7-0.3h-1l0.7-0.3h-1l0.7-0.3h-1l0.7-0.3h-1l0.7-0.3h-1
					l0.7-0.3h-1l0.7-0.3h-1l0.7-0.3h-1l0.7-0.3h-1l0.7-0.3h-1l0.7-0.3h-1l0.7-0.3h-1l0.7-0.3h-1l0.7-0.3h-1l0.7-0.3h-1l0.7-0.3h-1
					l0.7-0.3h-1l0.7-0.3h-1l0.7-0.3h-1l0.7-0.3h-1l0.7-0.3h-1l0.7-0.3h-1l0.7-0.3h-1l0.7-0.3h-1l0.7-0.3h-1l0.7-0.3h-1l0.7-0.3h-1
					l0.7-0.3h-1l0.7-0.3h-1l0.7-0.3h-1l0.7-0.3h-1l0.7-0.3h-1l0.7-0.3h-1l0.7-0.3h-1l0.7-0.3h-1l0.7-0.3h-1l0.7-0.3h-1l0.7-0.3h-1
					l0.7-0.3h-1l0.7-0.3h-1l0.7-0.3h-1l0.7-0.3h-1l0.7-0.3h-1l0.7-0.3h-1l0.7-0.3h-1l0.7-0.3h-1l0.7-0.3h-1l0.7-0.3h-1l0.7-0.3h-1
					l0.7-0.3h-1l0.7-0.3h-1l0.7-0.3h-1l0.7-0.3h-1l0.7-0.3h-1l0.7-0.3h-1l0.7-0.3h-1l0.7-0.3h-1l0.7-0.3h-1l0.7-0.3h-1l0.7-0.3h-1
					l0.7-0.3h-1l0.7-0.3h-1l0.7-0.3h-1l0.7-0.3h-1l0.7-0.3h-1l0.7-0.3h-1l0.7-0.3h-1l0.7-0.3h-1l0.7-0.3h-1l0.7-0.3h-1l0.7-0.3h-1
					l0.7-0.3h-1l0.7-0.3h-1l0.7-0.3h-1l0.7-0.3h-1l0.7-0.3h-1l0.7-0.3h-1l0.7-0.3h-1l0.7-0.3h-1l0.7-0.3h-1l0.7-0.3h-1l0.7-0.3h-1
					l0.7-0.3h-1L137,92h-1l0.7-0.3h-1l0.7-0.3h-1l0.7-0.3h-1l0.7-0.3h-1l0.7-0.3h-1l0.7-0.3h-1l0.7-0.3h-1l0.7-0.3h-1l0.7-0.3h-1
					L134,89h-1l0.7-0.3h-1l0.7-0.3h-1l0.7-0.3h-1l0.7-0.3h-1l0.7-0.3h-1l0.7-0.3h-1l0.7-0.3h-1l0.7-0.3h-1l0.7-0.3h-1L131,86h-1
					l0.7-0.3h-1l0.7-0.3h-1l0.7-0.3h-1l0.7-0.3h-1L129,85h-1l0.7-0.3h-1l0.7-0.3h-1l0.7-0.3h-1l0.7-0.3h-1l0.7-0.3h-1l0.7-0.3h-1
					l0.7-0.3h-1l0.7-0.3h-1l0.7-0.3h-1L126,82h-1l0.7-0.3h-1l0.7-0.3h-1l0.7-0.3h-1l0.7-0.3h-1l0.7-0.3h-1l0.7-0.3h-1l0.7-0.3h-1
					l0.7-0.3h-1l0.7-0.3h-1L123,79h-1l0.7-0.3h-1l0.7-0.3h-1l0.7-0.3h-1l0.7-0.3h-1l0.7-0.3h-1l0.7-0.3h-1l0.7-0.3h-1l0.7-0.3h-1
					l0.7-0.3h-1L120,76h-1l0.7-0.3h-1l0.7-0.3h-1l0.7-0.3h-1l0.7-0.3h-1l0.7-0.3h-1l0.7-0.3h-1l0.7-0.3h-1l9.7-0.8h-1l0.7-0.3h-1
					l0.7-0.3h-1l0.7-0.3h-1l0.7-0.3h-1l0.7-0.3h-1l0.7-0.3h-1l0.9-0.3h-1l0.7-0.3h-1l0.7-0.3h-1l0.7-0.3h-1l0.7-0.3h-1l0.7-0.3h-1
					l0.7-0.3h-1l0.9-0.3h-1l0.7-0.3h-1l0.7-0.3h-1l0.7-0.3h-1l0.7-0.3h-1l0.7-0.3h-1l0.7-0.3h-1l0.9-0.3h-1l0.7-0.3h-1l0.7-0.3h-1
					l0.7-0.3h-1l0.7-0.3h-1l0.7-0.3h-1l0.7-0.3h-1l0.9-0.3h-1l0.7-0.3h-1l0.7-0.3h-1l0.7-0.3h-1l0.7-0.3h-1l0.4-0.4h-1l0.7-0.3h-1
					l0.7-0.3h-1l0.7-0.3h-1l0.7-0.3h-1l0.7-0.3h-1l0.7-0.3h-1l0.7-0.3h-1l0.7-0.3h-1l0.7-0.3h-1l0.7-0.3h-1l0.7-0.3h-1l0.7-0.3h-1
					l0.7-0.3h-1l0.7-0.3h-1l0.7-0.3h-1l0.7-0.3h-1l0.7-0.3h-1l0.7-0.3h-1l0.7-0.3h-1l0.7-0.3h-1l0.7-0.3h-1l0.7-0.3h-1l0.7-0.3h-1
					l0.7-0.3h-1l0.7-0.3h-1l0.7-0.3h-1l0.7-0.3h-1l0.7-0.3h-1l0.7-0.3h-1l0.7-0.3h-1l0.7-0.3h-1l0.7-0.3h-1l0.7-0.3h-1l0.7-0.3h-1
					l0.7-0.3h-1l0.7-0.3h-1l0.4-0.5H80.3c-11.1,0-21.4,9-21.4,18.8c-0.1,4.8,1.8,9.3,5.3,12.6l0.3,0.3l0.3,0.3l0.3,0.3l0.3,0.3
					l0.3,0.3L66,85l0.3,0.3l0.3,0.3l0.3,0.3l0.3,0.3l0.3,0.3l0.3,0.3l0.3,0.3l0.3,0.3l0.3,0.3L69,88l0.3,0.2l0.3,0.3l0.3,0.3
					l0.3,0.3l0.3,0.3l0.3,0.3l0.3,0.3l0.3,0.3l0.3,0.3l0.3,0.3l0.3,0.3l0.3,0.3l0.3,0.3l0.3,0.3l0.3,0.3l0.3,0.3l0.3,0.3l0.3,0.3
					l0.3,0.3l0.3,0.3l0.3,0.3l0.3,0.3l0.3,0.3l0.3,0.3l0.3,0.3l0.3,0.3l0.3,0.3l0.3,0.3l0.3,0.3l0.3,0.3l0.3,0.3l0.3,0.3l0.3,0.3
					l0.3,0.3l0.3,0.3l0.3,0.3l0.3,0.3l0.3,0.3l0.3,0.3l0.3,0.2l0.3,0.3l0.3,0.3l0.3,0.3l0.1,0.1h-3.4c-13.8,0-24.1,7-24.1,16.1
					c0.1,3,1.4,5.9,3.7,7.9l0.3,0.3l0.3,0.3l0.3,0.3l0.3,0.3l0.3,0.3l0.3,0.3l0.3,0.3l0.3,0.3l0.3,0.3l0.3,0.3l0.3,0.3l0.3,0.3
					l0.3,0.3l0.3,0.3l0.3,0.3l0.3,0.3l0.3,0.3l0.3,0.3l0.3,0.3l0.3,0.3l0.3,0.3l0.3,0.3l0.3,0.3l0.3,0.3l0.3,0.3l0.3,0.3l0.3,0.3
					l0.3,0.3l0.3,0.3l0.3,0.3l0.3,0.3l0.3,0.3l0.3,0.3l0.3,0.3l0.3,0.3l0.3,0.3l0.3,0.3l0.3,0.3l0.3,0.3l0.3,0.3l0.3,0.3l0.3,0.3
					l0.3,0.3l0.3,0.3l0.3,0.3l0.3,0.3l0.3,0.3l0.3,0.3l0.3,0.3l0.3,0.3l0.3,0.3l0.3,0.3l0.3,0.3l0.3,0.3l0.3,0.3l0.3,0.3l0.3,0.3
					l0.3,0.3l0.3,0.3l0.3,0.3l0.3,0.3l0.3,0.3l0.3,0.3l0.3,0.3l0.3,0.3l0.3,0.3l0.3,0.3l0.3,0.3l0.3,0.3l0.3,0.3l0.3,0.3l0.3,0.3
					l0.3,0.3l0.3,0.3l0.3,0.3l0.3,0.3l0.3,0.3l0.3,0.3l0.3,0.3l0.3,0.3l0.3,0.3l0.3,0.3l0.3,0.3l0.3,0.3l0.3,0.3l0.3,0.3l0.3,0.3
					l0.3,0.3l0.3,0.3l0.3,0.3l0.3,0.3l0.3,0.3l0.3,0.3l0.3,0.3l0.3,0.3l0.3,0.3l0.3,0.3l0.3,0.3l0.3,0.3l0.3,0.3l0.3,0.3l0.3,0.3
					l0.3,0.3l0.3,0.3l0.3,0.3l0.3,0.3l0.3,0.3l0.3,0.3l0.3,0.3l0.3,0.3l0.3,0.3l0.3,0.3l0.3,0.3l0.3,0.3l0.3,0.3l0.3,0.3l0.3,0.3
					l0.3,0.3l0.3,0.3l0.3,0.3l0.3,0.3l0.3,0.3l0.3,0.3l0.3,0.3l0.3,0.3l0.3,0.3l0.3,0.3l0.3,0.3l0.3,0.3l0.3,0.3l0.3,0.3l0.3,0.3
					l0.3,0.3l0.3,0.3l0.3,0.3l0.3,0.3l0.3,0.3l0.3,0.3l0.3,0.3l0.3,0.3c0.1,0.1,0.2,0.2,0.3,0.3l0.3,0.3l0.3,0.3l0.3,0.3l0.3,0.3
					l0.3,0.3l0.3,0.3c0.1,0.1,0.2,0.2,0.3,0.3l0.3,0.3l0.3,0.3l0.3,0.3l0.3,0.3c0.1,0.1,0.2,0.2,0.3,0.3l0.3,0.3l0.3,0.3l0.3,0.3
					l0.3,0.3l0.3,0.3l0.3,0.2l0.3,0.3c0.1,0.1,0.2,0.2,0.3,0.3l0.3,0.3l0.3,0.3l0.3,0.3l0.3,0.3l0.3,0.3l0.3,0.3l0.3,0.3l0.3,0.3
					l0.3,0.3l0.3,0.3l0.3,0.3l0.3,0.3l0.3,0.3l0.3,0.3l0.3,0.3l0.3,0.3l0.3,0.3l0.3,0.3l0.3,0.3l0.3,0.3l0.3,0.3l0.3,0.3l0.3,0.3
					l0.3,0.3l0.3,0.3l0.3,0.3l0.3,0.3l0.3,0.3l0.3,0.3l0.3,0.3l0.3,0.3l0.3,0.3l0.3,0.3l0.3,0.3l0.3,0.3l0.3,0.3l0.3,0.3l0.3,0.3
					l0.3,0.3l0.3,0.3l0.3,0.3l0.3,0.3l0.3,0.3l0.3,0.3c0.1,0.1,0.2,0.2,0.3,0.3l0.3,0.3l0.3,0.3l0.3,0.3l0.3,0.3l0.3,0.3l0.3,0.3
					l0.3,0.3l0.3,0.3l0.3,0.3l0.3,0.3l0.3,0.3l0.3,0.3c0.1,0.1,0.2,0.2,0.3,0.3l0.3,0.3l0.3,0.3l0.3,0.3l0.3,0.3l0.3,0.3l0.3,0.3
					l0.3,0.3l0.3,0.3l0.3,0.3l0.3,0.3l0.3,0.3l0.3,0.3l0.3,0.3l0.3,0.3l0.3,0.3l0.3,0.3l0.3,0.3l0.3,0.3l0.3,0.3l0.3,0.3l0.3,0.3
					l0.3,0.3l0.3,0.3l0.3,0.3l0.3,0.3l0.3,0.3l0.3,0.3l0.3,0.3l0.3,0.3l0.3,0.3l0.3,0.3l0.3,0.3l0.3,0.3l0.3,0.3l0.3,0.3l0.3,0.3
					l0.3,0.3l0.3,0.3l0.3,0.3l0.3,0.3l0.3,0.3l0.3,0.3l0.3,0.3l0.3,0.3l0.3,0.3l0.3,0.3l0.3,0.3l0.3,0.3l0.3,0.3l0.3,0.3l0.3,0.3
					l0.3,0.3l0.3,0.3l0.3,0.3l0.3,0.3l0.3,0.3l0.3,0.3l0.3,0.3l0.3,0.3l0.3,0.2l0.3,0.3l0.3,0.3l0.3,0.3c0.1,0.1,0.2,0.2,0.3,0.3
					l0.3,0.3l0.3,0.3l0.3,0.3l0.3,0.3l0.3,0.3l0.3,0.3l0.3,0.3l0.3,0.3l0.3,0.3l0.3,0.3l0.3,0.3l0.3,0.3l0.3,0.3l0.3,0.3l0.3,0.3
					l0.3,0.3l0.3,0.3c5,5.5,14.2,8.9,23.8,8.9c15.7,0,26.7-8,26.7-18.8c0-3.7-1.8-6.6-4.4-9.1l-0.3-0.3l-0.3-0.2l-0.3-0.3l-0.3-0.3
					l-0.3-0.3l-0.3-0.3l-0.3-0.3l-0.3-0.3l-0.3-0.3l-0.3-0.3l-0.3-0.3l-0.3-0.3l-0.3-0.3l-0.3-0.3l-0.3-0.3l-0.2-0.2l-0.3-0.3
					l-0.3-0.3l-0.3-0.3l-0.3-0.3l-0.3-0.3l-0.3-0.3l-0.3-0.3l-0.3-0.3l-0.3-0.3l-0.3-0.3l-0.3-0.3l-0.3-0.3l-0.3-0.3l-0.3-0.3
					l-0.3-0.3l-0.3-0.3l-0.3-0.3l-0.3-0.3l-0.3-0.3l-0.3-0.3l-0.3-0.3l-0.3-0.3l-0.3-0.3l-0.3-0.3l-0.3-0.3l-0.3-0.3l-0.3-0.3
					l-0.3-0.3l-0.3-0.3l-0.3-0.3l-0.2-0.2l-0.3-0.3l-0.3-0.3l-0.3-0.3l-0.3-0.3l0,0c0-2.3,1.1-4.4,2.9-5.8c1.5-1.2,2.9-2.5,4.1-4
					v0.1h0.2v0.2h0.1l0,0h0.2v0.2h0.1v0.1h0.2v0.2h0.1v0.1h0.2v0.2h0.1v0.1h0.2v0.2h0.1v0.1h0.2v0.2h0.1v0.1h0.2v0.2h0.1v0.1h0.2
					v0.2h0.1v0.1h0.2v0.2h0.1v0.1h0.2v0.2h0.1v0.1h0.2v0.2h0.1v0.1h0.2v0.2h0.1v0.1h0.2v0.2h0.1v0.1h0.2v0.2h0.1v0.1h0.2v0.2h0.1
					v0.2h0.2v0.2h0.1v0.1h0.2v0.2h0.1v0.1h0.2v0.2h0.1v0.1h0.2v0.2h0.1v0.1h0.2v0.2h0.1v0.1h0.2v0.2h0.1v0.1h0.2v0.2h0.1v0.2h0.2
					v0.2h0.1v0.1h0.2v0.2h0.1v0.1h0.2v0.2h0.1v0.1h0.2v0.2h0.1v0.1h0.1v0.2h0.1v0.1h0.2v0.2h0.1v0.1h0.2v0.2h0.1v0.1h0.2v0.2h0.1
					v0.1h0.2v0.2h0.1v0.1h0.2v0.2h0.1v0.1h0.2v0.2h0.1v0.1h0.2v0.2h0.1v0.1h0.2v0.2l0,0v0.1h0.2v0.2h0.1v0.1h0.2v0.2h0.1v0.1h0.2
					v0.2h0.1v0.1h0.2v0.2h0.1v0.1h0.2v0.2h0.1v0.1h0.2v0.2h0.1v0.1h0.2v0.2h0.1v0.2h0.2v0.2h0.3v0.3h0.3v0.3h0.3v0.3h0.3v0.3h0.3
					v0.3h0.3v0.3h0.3v0.3h0.3v0.3h0.3v0.3h0.3v0.3h0.3v0.3h0.3v0.3h0.3v0.3h0.3v0.3h0.3v0.3h0.3v0.3h0.3v0.3h0.3v0.3h0.3v0.3h0.3
					v0.3h0.3v0.3h0.3v0.3h0.3v0.3h0.3v0.3h0.3v0.3h0.3v0.3h0.3v0.3h0.3v0.3h0.3v0.3h0.3v0.3h0.3v0.3h0.3v0.3h0.3v0.3h0.3v0.3h0.3
					v0.3h0.3v0.2h0.3v0.4h5.4v-10.7H226v-5.4L219.3,174.1L219.3,174.1z"/>
			</g>
		</g>
	</g>
</g>
<g id="G_">
	<polygon id="_" class="st3" points="133.8,88.4 123.1,88.4 123.1,77.7 117.8,77.7 117.8,88.4 107.1,88.4 107.1,93.8 117.8,93.8 
		117.8,104.5 123.1,104.5 123.1,93.8 133.8,93.8 	"/>
	<path id="g" class="st3" d="M93.7,99.1c0,0-5.4-3.1-5.4-5.4c0,0-1.3-4.9,2.7-8s8-8.1,8-13.4c0-6.3-2.8-13.4-8-16.1h8l6.4-2.7H80.3
		c-11.1,0-21.4,9-21.4,18.8c0,10,7.6,17.6,19,17.6c0.8,0,1.6,0,2.3-0.1c-0.8,1.4-1.2,3-1.3,4.6c0,2.8,2.2,5.5,4.1,7.3h-5.4
		c-13.8,0-24.1,7-24.1,16.1s13,16.1,26.9,16.1c15.8,0,26.7-8,26.7-18.8C107.1,108,100.2,103.8,93.7,99.1z M83,88.4
		c-6.4,0-15-7.6-16.1-16.1S71.2,56,77.6,56.2S89.9,64.1,91,72.5S88.3,88.4,83,88.4L83,88.4z M80.3,128.6c-9.6,0-18.7-3.5-18.7-10.7
		s9.2-13.5,18.7-13.4c2.2,0,5.4,0,5.4,0c2.7,0,7.7,2.4,10.7,5.4c2.7,2.7,2.7,7.2,2.7,8C99,125.9,93.7,128.6,80.3,128.6L80.3,128.6z"
		/>
</g>
</svg>
