<?xml version="1.0" encoding="utf-8"?>
<!-- Generator: Adobe Illustrator 19.2.1, SVG Export Plug-In . SVG Version: 6.00 Build 0)  -->
<svg version="1.1" id="Layer_1" xmlns="http://www.w3.org/2000/svg" xmlns:xlink="http://www.w3.org/1999/xlink" x="0px" y="0px"
	 viewBox="0 0 185.4 184.8" style="enable-background:new 0 0 185.4 184.8;" xml:space="preserve">
<style type="text/css">
	.st0{fill:#0E76A8;}
	.st1{clip-path:url(#SVGID_2_);}
	.st2{opacity:0.5;fill:url(#SVGID_3_);enable-background:new    ;}
	.st3{fill:#FFFFFF;}
</style>
<title>contact</title>
<ellipse id="Circle" class="st0" cx="94.3" cy="93.8" rx="64.2" ry="64.3"/>
<g id="in_Shadow">
	<g>
		<g>
			<defs>
				<ellipse id="SVGID_1_" cx="94.4" cy="93.8" rx="64.2" ry="64.3"/>
			</defs>
			<clipPath id="SVGID_2_">
				<use xlink:href="#SVGID_1_"  style="overflow:visible;"/>
			</clipPath>
			<g class="st1">
				
					<linearGradient id="SVGID_3_" gradientUnits="userSpaceOnUse" x1="646.7524" y1="1338.0273" x2="493.7402" y2="1185.015" gradientTransform="matrix(1 0 0 1 -439.3 -1115.6899)">
					<stop  offset="0.53" style="stop-color:#000000;stop-opacity:0"/>
					<stop  offset="0.58" style="stop-color:#000000;stop-opacity:0.11"/>
					<stop  offset="1" style="stop-color:#000000"/>
				</linearGradient>
				<path class="st2" d="M210.8,171.1c-0.1-0.1-0.2-0.2-0.3-0.3s-0.2-0.2-0.3-0.3l-0.3-0.3c-0.1-0.1-0.2-0.2-0.3-0.3
					s-0.2-0.2-0.3-0.3s-0.2-0.2-0.3-0.3s-0.2-0.2-0.3-0.3s-0.2-0.2-0.3-0.3s-0.2-0.2-0.3-0.3l-0.3-0.3c-0.1-0.1-0.2-0.2-0.3-0.3
					s-0.2-0.2-0.3-0.3s-0.2-0.2-0.3-0.3s-0.2-0.2-0.3-0.3s-0.2-0.2-0.3-0.3s-0.2-0.2-0.3-0.3s-0.2-0.2-0.3-0.3s-0.2-0.2-0.3-0.3
					s-0.2-0.2-0.3-0.3s-0.2-0.2-0.3-0.3s-0.2-0.2-0.3-0.3s-0.2-0.2-0.3-0.3s-0.2-0.2-0.3-0.3s-0.2-0.2-0.3-0.3s-0.2-0.2-0.3-0.3
					l-0.3-0.3l-0.3-0.3c-0.1-0.1-0.2-0.2-0.3-0.3s-0.2-0.2-0.3-0.3s-0.2-0.2-0.3-0.3l-0.3-0.3c-0.1-0.1-0.2-0.2-0.3-0.3
					s-0.2-0.2-0.3-0.3s-0.2-0.2-0.3-0.3s-0.2-0.2-0.3-0.3s-0.2-0.2-0.3-0.3s-0.2-0.2-0.3-0.3s-0.2-0.2-0.3-0.3s-0.2-0.2-0.3-0.3
					s-0.2-0.2-0.3-0.3s-0.2-0.2-0.3-0.3l-0.3-0.3l-0.3-0.3c-0.1-0.1-0.2-0.2-0.3-0.3s-0.2-0.2-0.3-0.3s-0.2-0.2-0.3-0.3
					s-0.2-0.2-0.3-0.3s-0.2-0.2-0.3-0.3l-0.3-0.3c-0.1-0.1-0.2-0.2-0.3-0.3s-0.2-0.2-0.3-0.3l-0.3-0.3c-0.1-0.1-0.2-0.2-0.3-0.3
					s-0.2-0.2-0.3-0.3s-0.2-0.2-0.3-0.3s-0.2-0.2-0.3-0.3s-0.2-0.2-0.3-0.3s-0.2-0.2-0.3-0.3s-0.2-0.2-0.3-0.3s-0.2-0.2-0.3-0.3
					s-0.2-0.2-0.3-0.3l-0.3-0.3c-0.1-0.1-0.2-0.2-0.3-0.3s-0.2-0.2-0.3-0.3s-0.2-0.2-0.3-0.3s-0.2-0.2-0.3-0.3s-0.2-0.2-0.3-0.3
					s-0.2-0.2-0.3-0.3s-0.2-0.2-0.3-0.3s-0.2-0.2-0.3-0.3l-0.3-0.3c-0.1-0.1-0.2-0.2-0.3-0.3s-0.2-0.2-0.3-0.3l-0.3-0.3l-0.3-0.3
					l-0.3-0.3c-0.1-0.1-0.2-0.2-0.3-0.3s-0.2-0.2-0.3-0.3l-0.3-0.3c-0.1-0.1-0.2-0.2-0.3-0.3s-0.2-0.2-0.3-0.3s-0.2-0.2-0.3-0.3
					s-0.2-0.2-0.3-0.3s-0.2-0.2-0.3-0.3s-0.2-0.2-0.3-0.3s-0.2-0.2-0.3-0.3s-0.2-0.2-0.3-0.3s-0.2-0.2-0.3-0.3s-0.2-0.2-0.3-0.3
					s-0.2-0.2-0.3-0.3s-0.2-0.2-0.3-0.3s-0.2-0.2-0.3-0.3s-0.2-0.2-0.3-0.3s-0.2-0.2-0.3-0.3s-0.2-0.2-0.3-0.3l-0.3-0.3
					c-0.1-0.1-0.2-0.2-0.3-0.3s-0.2-0.2-0.3-0.3s-0.2-0.2-0.3-0.3s-0.2-0.2-0.3-0.3s-0.2-0.2-0.3-0.3s-0.2-0.2-0.3-0.3
					s-0.2-0.2-0.3-0.3s-0.2-0.2-0.3-0.3s-0.2-0.2-0.3-0.3s-0.2-0.2-0.3-0.3s-0.2-0.2-0.3-0.3s-0.2-0.2-0.3-0.3s-0.2-0.2-0.3-0.3
					l-0.3-0.3c-0.1-0.1-0.2-0.2-0.3-0.3s-0.2-0.2-0.3-0.3s-0.2-0.2-0.3-0.3s-0.2-0.2-0.3-0.3s-0.2-0.2-0.3-0.3l-0.3-0.3l-0.3-0.3
					c-0.1-0.1-0.2-0.2-0.3-0.3s-0.2-0.2-0.3-0.3s-0.2-0.2-0.3-0.3s-0.2-0.2-0.3-0.3l-0.3-0.3c-0.1-0.1-0.2-0.2-0.3-0.3
					s-0.2-0.2-0.3-0.3s-0.2-0.2-0.3-0.3l-0.3-0.3c-0.1-0.1-0.2-0.2-0.3-0.3l-0.3-0.3c-0.1-0.1-0.2-0.2-0.3-0.3s-0.2-0.2-0.3-0.3
					s-0.2-0.2-0.3-0.3l-0.3-0.3c-0.1-0.1-0.2-0.2-0.3-0.3s-0.2-0.2-0.3-0.3l-0.3-0.3l-0.3-0.3c-0.1-0.1-0.2-0.2-0.3-0.3
					s-0.2-0.2-0.3-0.3l-0.3-0.3l-0.3-0.3c-0.1-0.1-0.2-0.2-0.3-0.3s-0.2-0.2-0.3-0.3s-0.2-0.2-0.3-0.3s-0.2-0.2-0.3-0.3
					s-0.2-0.2-0.3-0.3s-0.2-0.2-0.3-0.3s-0.2-0.2-0.3-0.3s-0.2-0.2-0.3-0.3s-0.2-0.2-0.3-0.3s-0.2-0.2-0.3-0.3l-0.3-0.3
					c-0.1-0.1-0.2-0.2-0.3-0.3s-0.2-0.2-0.3-0.3s-0.2-0.2-0.3-0.3s-0.2-0.2-0.3-0.3s-0.2-0.2-0.3-0.3s-0.2-0.2-0.3-0.3
					s-0.2-0.2-0.3-0.3s-0.2-0.2-0.3-0.3s-0.2-0.2-0.3-0.3s-0.2-0.2-0.3-0.3s-0.2-0.2-0.3-0.3s-0.2-0.2-0.3-0.3s-0.2-0.2-0.3-0.3
					s-0.2-0.2-0.3-0.3s-0.2-0.2-0.3-0.3s-0.2-0.2-0.3-0.3s-0.2-0.2-0.3-0.3s-0.2-0.2-0.3-0.3s-0.2-0.2-0.3-0.3s-0.2-0.2-0.3-0.3
					l-0.3-0.3c-0.1-0.1-0.2-0.2-0.3-0.3s-0.2-0.2-0.3-0.3s-0.2-0.2-0.3-0.3s-0.2-0.2-0.3-0.3l2,2.7c-0.1-0.1-0.2-0.2-0.3-0.3
					s-0.2-0.2-0.3-0.3s-0.2-0.2-0.3-0.3s-0.2-0.2-0.3-0.3s-0.2-0.2-0.3-0.3s-0.2-0.2-0.3-0.3s-0.2-0.2-0.3-0.3l-0.3-0.3
					c-0.1-0.1-0.2-0.2-0.3-0.3s-0.2-0.2-0.3-0.3l-0.3-0.3c-0.1-0.1-0.2-0.2-0.3-0.3s-0.2-0.2-0.3-0.3s-0.2-0.2-0.3-0.3
					s-0.2-0.2-0.3-0.3s-0.2-0.2-0.3-0.3s-0.2-0.2-0.3-0.3s-0.2-0.2-0.3-0.3s-0.2-0.2-0.3-0.3s-0.2-0.2-0.3-0.3l-0.3-0.3
					c-0.1-0.1-0.2-0.2-0.3-0.3l-0.3-0.3c-0.1-0.1-0.2-0.2-0.3-0.3s-0.2-0.2-0.3-0.3s-0.2-0.2-0.3-0.3s-0.2-0.2-0.3-0.3l-0.3-0.3
					c-0.1-0.1-0.2-0.2-0.3-0.3L151,112l-0.3-0.3c-0.1-0.1-0.2-0.2-0.3-0.3s-0.2-0.2-0.3-0.3l-0.3-0.3c-0.1-0.1-0.2-0.2-0.3-0.3
					s-0.2-0.2-0.3-0.3l-0.3-0.3c-0.1-0.1-0.2-0.2-0.3-0.3l-0.3-0.3c-0.1-0.1-0.2-0.2-0.3-0.3l-0.3-0.3l-0.3-0.3
					c-0.1-0.1-0.2-0.2-0.3-0.3s-0.2-0.2-0.3-0.3s-0.2-0.2-0.3-0.3s-0.2-0.2-0.3-0.3s-0.2-0.2-0.3-0.3s-0.2-0.2-0.3-0.3
					s-0.2-0.2-0.3-0.3L145,106c-0.1-0.1-0.2-0.2-0.3-0.3s-0.2-0.2-0.3-0.3l-0.3-0.3c-0.1-0.1-0.2-0.2-0.3-0.3s-0.2-0.2-0.3-0.3
					s-0.2-0.2-0.3-0.3s-0.2-0.2-0.3-0.3s-0.2-0.2-0.3-0.3s-0.2-0.2-0.3-0.3s-0.2-0.2-0.3-0.3s-0.2-0.2-0.3-0.3s-0.2-0.2-0.3-0.3
					s-0.2-0.2-0.3-0.3s-0.2-0.2-0.3-0.3s-0.2-0.2-0.3-0.3s-0.2-0.2-0.3-0.3l-0.3-0.3c-0.1-0.1-0.2-0.2-0.3-0.3l-0.3-0.3
					c-0.1-0.1-0.2-0.2-0.3-0.3s-0.2-0.2-0.3-0.3s-0.2-0.2-0.3-0.3s-0.2-0.2-0.3-0.3s-0.2-0.2-0.3-0.3s-0.2-0.2-0.3-0.3l-0.3-0.3
					c-0.1-0.1-0.2-0.2-0.3-0.3s-0.2-0.2-0.3-0.3s-0.2-0.2-0.3-0.3s-0.2-0.2-0.3-0.3s-0.2-0.2-0.3-0.3s-0.2-0.2-0.3-0.3l-0.3-0.3
					l-0.3-0.3l-0.3-0.3c-0.1-0.1-0.2-0.2-0.3-0.3s-0.2-0.2-0.3-0.3s-0.2-0.2-0.3-0.3s-0.2-0.2-0.3-0.3s-0.2-0.2-0.3-0.3
					s-0.2-0.2-0.3-0.3s-0.2-0.2-0.3-0.3s-0.2-0.2-0.3-0.3s-0.2-0.2-0.3-0.3s-0.2-0.2-0.3-0.3s-0.2-0.2-0.3-0.3s-0.2-0.2-0.3-0.3
					s-0.2-0.2-0.3-0.3s-0.2-0.2-0.3-0.3s-0.2-0.2-0.3-0.3s-0.2-0.2-0.3-0.3s-0.2-0.2-0.3-0.3s-0.2-0.2-0.3-0.3l-0.3-0.3l-0.3-0.3
					c-0.1-0.1-0.2-0.2-0.3-0.3s-0.2-0.2-0.3-0.3s-0.2-0.2-0.3-0.3s-0.2-0.2-0.3-0.3s-0.2-0.2-0.3-0.3s-0.2-0.2-0.3-0.3
					s-0.2-0.2-0.3-0.3s-0.2-0.2-0.3-0.3l-0.3-0.3c-0.1-0.1-0.2-0.2-0.3-0.3l-0.3-0.3c-0.1-0.1-0.2-0.2-0.3-0.3s-0.2-0.2-0.3-0.3
					s-0.2-0.2-0.3-0.3s-0.2-0.2-0.3-0.3s-0.2-0.2-0.3-0.3s-0.2-0.2-0.3-0.3l-0.3-0.3c-2.4-2.3-6.1-3.6-11.8-3.6
					c-3.9-0.1-7.6,1.1-10.7,3.4v-0.3h-0.4v-0.3h-0.3V83h-0.8v-0.3h-0.3v-0.3h1.2v-0.3h-0.3v-0.3h-0.3v-0.3h-0.3v-0.3h-0.3v-0.3h-0.3
					v-0.3h-0.3v-0.3H95l-0.2-0.2l-0.3-0.3l-0.3-0.3L94,81.3L93.7,81l-0.3-0.3l-0.3-0.3l-0.3-0.3l-0.3-0.3l-0.3-0.3l-0.3-0.3
					l-0.3-0.3l-0.3-0.3L91,78.3L90.7,78l-0.2,0l-0.3-0.3l-0.3-0.3l-0.3-0.3l-0.3-0.3L89,76.5l-0.3-0.3L88.5,76l-0.3-0.3l-0.3-0.3
					l-0.3-0.3l-0.3-0.3L87,74.5l-0.3-0.3L86.4,74l-0.3-0.3l-0.3-0.3l-0.3-0.3l-0.2-0.3L85,72.5l-0.3-0.3l-0.3-0.3l-0.3-0.3l-0.3-0.3
					L83.5,71l-0.3-0.3L83,70.5l-0.3-0.3l-0.3-0.3l-0.3-0.3l-0.3-0.3L81.5,69l-0.3-0.3L81,68.5l-0.3-0.3L80.4,68l-0.3-0.3l-0.3-0.3
					l-0.3-0.3l-0.3-0.3L79,66.5l-0.3-0.3L78.4,66l-0.3-0.3l-0.3-0.3l-0.3-0.3l-0.3-0.3L77,64.5l-0.3-0.3L76.4,64l-0.3-0.3l-0.3-0.3
					l-0.3-0.3l-0.3-0.3l-0.3-0.3l-0.3-0.3L74.4,62l-0.3-0.3c-1.5-1.8-3.6-2.8-5.9-2.8c-4.5,0-8.1,3.6-8.1,8.1c0,2.2,0.9,4.4,2.5,5.9
					l0.3,0.3l0.3,0.3l0.3,0.3l0.2,0.3l0.3,0.3l0.3,0.3l0.3,0.3l0.3,0.3l0.3,0.3l0.3,0.3l0.3,0.3l0.3,0.3l0.3,0.3l0.3,0.3l0.3,0.3
					l0.3,0.3l0.3,0.3l0.3,0.3l0.3,0.3l0.3,0.3l0.3,0.3l0.3,0.3l0.3,0.3l0.3,0.3l0.3,0.3l0.3,0.3l0.3,0.3l0.3,0.3l0.3,0.3l0.3,0.3
					l0.3,0.3l0.3,0.3l0.1,0.1h-11v46.5h0.3v0.3h0.3v0.3h0.3v0.3h0.3v0.3h0.3v0.3H63v0.3h0.3v0.3h0.3v0.3h0.3v0.3h0.3v0.3h0.3v0.3
					h0.3v0.3H65v0.3h0.3v0.3h0.3v0.3h0.3v0.3h0.3v0.3h0.3v0.3h0.3v0.3H67v0.3h0.3v0.3h0.3v0.3h0.3v0.3h0.3v0.3h0.3v0.3h0.3v0.3H69
					v0.3h0.3v0.3h0.3v0.3h0.3v0.3h0.3v0.3h0.3v0.3h0.3v0.3H71v0.3h0.3v0.3h0.3v0.3h0.3v0.3h0.3v0.3h0.3v0.3h0.3v0.3H73v0.3h0.3v0.3
					h0.3v0.3h0.3v0.3h0.3v0.3h0.3v0.3h0.3v0.3H75v0.3h0.3v0.3h0.3v0.3h0.3v0.3h0.3v0.3h0.3v0.3h0.3v0.3h0.3v0.3h0.3v0.3h0.3v0.3H78
					v0.3h0.3v0.3h0.3v0.3h0.3v0.3h0.3v0.3h0.3v0.3h0.4v0.3H80v0.3h0.3v0.3h0.3v0.3h0.3v0.2h0.3v0.3h0.3v0.3h0.2v0.3H82v0.3h0.3v0.3
					h0.3v0.3h0.3v0.3h0.3v0.3h0.3v0.3h0.3v0.3H84v0.3h0.3v0.3h0.3v0.3h0.3v0.3h0.3v0.3h0.3v0.3h0.3v0.3H86v0.3h0.3v0.3h0.3v0.3h0.3
					v0.3h0.3v0.3h0.3v0.3h0.3v0.3h0.3v0.3h0.3v0.3h0.3v0.5H89v0.3h0.3v0.3h0.3v0.3h0.3v0.3h0.3v0.3h0.3v0.3h0.3v0.3H91v0.3h0.3v0.3
					h0.3v0.3h0.3v0.3h0.3v0.3h0.3v0.3h0.3v0.3H93v0.3h0.3v0.3h0.3v0.3h0.3v0.3h0.3v0.3h0.3v0.3h0.3v0.3H95v0.3h0.3v0.3h0.3v0.3h0.3
					v0.3h0.3v0.3h0.3v0.3h0.3v0.3H97v0.3h0.3v0.3h0.3v0.3h0.3v0.3h0.3v0.3h0.3v0.3h0.3v0.3H99v0.3h0.3v0.3h0.3v0.3h0.3v0.3h0.3v0.3
					h0.3v0.3h0.3v0.3h0.3v0.2h0.3v0.3h0.3v0.3h0.3v0.3h0.3v0.3h0.3v0.3h0.3v0.3h0.3v0.3h0.3v0.3h0.3v0.3h0.3v0.3h0.3v0.3h0.3v0.3
					h0.3v0.3h0.3v0.3h0.3v0.3h0.3v0.3h0.3v0.3h0.3v0.3h0.3v0.3h0.3v0.3h0.3v0.3h0.3v0.3h0.3v0.3h0.3v0.3h0.3v0.3h0.3v0.3h0.3v0.3
					h0.3v0.3h0.3v0.3h0.3v0.3h0.3v0.3h0.3v0.3h0.3v0.3h0.3v0.3h0.3v0.3h0.3v0.3h0.3v0.3h0.3v0.3h0.3v0.2h0.3v0.3h0.3v0.3h0.3v0.4
					h0.3v0.3h0.3v0.3h0.3v0.3h0.3v0.3h0.3v0.3h0.4v0.3h0.3v0.3h0.3v0.3h0.3v0.3h0.3v0.3h0.3v0.3h0.3v0.3h0.3v0.3h0.3v0.3h0.3v0.3
					h0.3v0.3h0.3v0.3h0.3v0.2h0.3v0.3h0.3v0.3h0.3v0.3h0.3v0.3h0.3v0.3h0.3v0.3h0.3v0.3h0.3v0.4h0.3v0.3h0.3v0.3h0.3v0.3h0.3v0.3
					h0.3v0.3h0.3v0.3h0.3v0.3h0.3v0.3h0.3v0.3h0.3v0.3h0.3v0.3h0.3v0.3h0.3v0.3h0.3v0.3h0.3v0.3h0.3v0.3h0.3v0.3h0.3v0.3h0.3v0.3
					h0.3v0.3h0.3v0.3h0.3v0.3h0.3v0.3h0.3v0.3h0.3v0.3h0.4v0.3h0.3v0.3h0.3v0.3h0.3v0.3h0.3v0.3h0.3v0.3h0.3v0.3h0.3v0.3h0.3v0.3
					h0.3v0.3h0.3v0.3h0.3v0.3h0.3v0.3h0.3v0.3h0.3v0.3h0.3v0.3h0.3v0.3h0.3v0.3h0.3v0.3h0.3v0.3h0.3v0.3h0.3v0.3h0.3v0.3h0.3v0.3
					h0.3v0.3h0.3v0.3h0.3v0.3h0.3v0.3h0.3v0.3h0.3v0.3h0.3v0.3h0.3v0.3h0.3v0.3h0.3v0.3h0.3v0.3h0.3v0.3h0.3v0.3h0.3v0.3h0.3v0.3
					h0.3v0.3h0.3v0.3h0.3v0.3h0.3v0.3h0.3v0.3h0.3v0.3h0.3v0.3h0.3v0.3h0.3v0.3h0.3v0.3h0.3v0.3h0.3v0.3h0.3v0.3h0.3v0.3h0.4v0.3
					h0.3v0.3h0.3v0.3h0.3v0.3h0.3v0.3h0.3v0.3h0.3v0.3h0.3v0.3h0.3v0.3h0.3v0.3h0.3v0.3h0.3v0.3h0.3v0.3h0.3v0.3h0.3v0.3h0.3v0.3
					h0.3v0.4h13.9v-9.4l0,0v0.3h0.3v0.3h0.3v0.3h0.3v0.3h0.3v0.3h0.3v0.3h0.3v0.3h0.3v0.3h0.3v0.3h0.3v0.3h0.3v0.3h0.3v0.3h0.3v0.3
					h0.3v0.3h0.3v0.3h0.3v0.3h0.3v0.3h0.3v0.3h0.3v0.3h0.3v0.3h0.3v0.2h0.3v0.3h0.3v0.3h0.3v0.3h0.3v0.3h0.3v0.3h0.3v0.3h0.3v0.3
					h0.3v0.3h0.3v0.3h0.3v0.3h0.3v0.3h0.3v0.4h13.9v-16.2h0.1v0.3h0.3v0.3h0.3v0.3h0.3v0.3h0.3v0.3h0.3v0.3h0.3v0.3h0.3v0.3h0.4v0.3
					h0.3v0.3h0.3v0.3h0.3v0.3h0.3v0.3h0.3v0.3h0.3v0.3h0.3v0.3h0.3v0.3h0.3v0.3h0.3v0.3h0.3v0.3h0.3v0.3h0.3v0.3h0.3v0.3h0.3v0.3
					h0.3v0.3h0.3v0.3h0.3v0.3h0.3v0.3h0.3v0.3h0.3v0.3h0.3v0.2h0.3v0.3h0.3v0.3h0.3v0.3h0.3v0.3h0.3v0.3h0.3v0.3h0.3v0.3h0.3v0.3
					h0.3v0.3h0.3v0.3h0.3v0.3h0.3v0.3h0.3v0.3h0.3v0.3h0.3v0.3h0.3v0.3h0.3v0.3h0.3v0.3h0.3v0.3h0.3v0.3h0.3v0.3h0.3v0.3h0.3v0.3
					h0.3v0.3h0.3v0.3h0.3v0.4h13.9v-25.6C215.5,180.9,214.9,174.7,210.8,171.1z"/>
			</g>
		</g>
	</g>
</g>
<g id="in">
	<path id="n" class="st3" d="M84.4,82.1h13.9v7l0,0c1.9-3.6,6.9-7,13.9-7c14.6,0,16.2,8.4,16.2,20.9v25.5h-13.9v-23.2
		c0-5.4,0.4-11.6-7-11.6c-9.3,0-9.3,5.5-9.3,11.6v23.2H84.4V82.1L84.4,82.1L84.4,82.1z"/>
	<rect id="_" x="61.2" y="82.2" class="st3" width="13.9" height="46.4"/>
	<ellipse id="_2" class="st3" cx="68.2" cy="67.1" rx="8.1" ry="8.1"/>
</g>
</svg>
