<svg id="Capa_1" data-name="Capa 1" xmlns="http://www.w3.org/2000/svg" viewBox="0 0 232.63 182.21"><defs><style>.cls-1{fill:#75bfce;}.cls-2{fill:#fff;}.cls-3{fill:#251e18;}</style></defs><title>plane2</title><path class="cls-1" d="M-97.88,219.9v-54.1c-2.7,0-5.57,4.39-5.57,9.46,0,7.77-2.7,49-2.7,49Z" transform="translate(214.3 -165.81)"/><path class="cls-1" d="M-103.46,222.9s-36-8.45-39.19-8.45-7.77,3.55-9,4.22,34.63,17.23,38.18,18.58S-103.46,222.9-103.46,222.9Z" transform="translate(214.3 -165.81)"/><circle class="cls-1" cx="57.41" cy="124.3" r="16.37"/><circle class="cls-2" cx="55.15" cy="126.55" r="14.12"/><circle class="cls-3" cx="53.6" cy="128.1" r="10.77"/><circle class="cls-1" cx="20.86" cy="112.91" r="15.19"/><circle class="cls-2" cx="18.77" cy="115" r="13.1"/><circle class="cls-3" cx="17.33" cy="116.44" r="9.99"/><path class="cls-2" d="M-124.91,262.43s-59.91-7.66-69.37-9-14.86,2.25-19.82,4.5,84.23,23.42,84.23,23.42Z" transform="translate(214.3 -165.81)"/><path class="cls-2" d="M-97.88,219.9V348c-28.83,0-42.79-26.86-36-66.81S-114.55,219.9-97.88,219.9Z" transform="translate(214.3 -165.81)"/><path class="cls-3" d="M-97.88,291v10.81s-8-.06-9.21-0.56V290.11A46.85,46.85,0,0,0-97.88,291Z" transform="translate(214.3 -165.81)"/><path class="cls-3" d="M-108.95,290.11s0.13,10.54,0,10.67-8.91-4.69-11-8.42c-1.1-2,1.44-5.86,2.53-5.6S-115,289-108.95,290.11Z" transform="translate(214.3 -165.81)"/><path class="cls-1" d="M-98.08,219.9v-54.1c2.7,0,5.57,4.39,5.57,9.46,0,7.77,2.7,49,2.7,49Z" transform="translate(214.3 -165.81)"/><path class="cls-1" d="M-92.51,222.9s36-8.45,39.19-8.45,7.77,3.55,9,4.22S-79,235.91-82.54,237.26-92.51,222.9-92.51,222.9Z" transform="translate(214.3 -165.81)"/><circle class="cls-1" cx="175.23" cy="124.3" r="16.37"/><circle class="cls-2" cx="177.48" cy="126.55" r="14.12"/><circle class="cls-3" cx="179.03" cy="128.1" r="10.77"/><circle class="cls-1" cx="211.77" cy="112.91" r="15.19"/><circle class="cls-2" cx="213.86" cy="115" r="13.1"/><circle class="cls-3" cx="215.3" cy="116.44" r="9.99"/><path class="cls-2" d="M-71.06,262.43s59.91-7.66,69.37-9,14.86,2.25,19.82,4.5S-66.1,281.35-66.1,281.35Z" transform="translate(214.3 -165.81)"/><path class="cls-2" d="M-98.08,219.9V348c28.83,0,42.79-26.86,36-66.81S-81.42,219.9-98.08,219.9Z" transform="translate(214.3 -165.81)"/><path class="cls-3" d="M-98.08,291v10.81s8-.06,9.21-0.56V290.11A46.85,46.85,0,0,1-98.08,291Z" transform="translate(214.3 -165.81)"/><path class="cls-3" d="M-87,290.11s-0.13,10.54,0,10.67,8.91-4.69,11-8.42c1.1-2-1.44-5.86-2.53-5.6S-80.94,289-87,290.11Z" transform="translate(214.3 -165.81)"/><ellipse class="cls-1" cx="116.22" cy="170.44" rx="15.4" ry="9.97"/><ellipse class="cls-2" cx="116.22" cy="173.14" rx="6.79" ry="4.39"/></svg>