<?xml version="1.0" encoding="utf-8"?>
<!-- Generator: Adobe Illustrator 19.2.1, SVG Export Plug-In . SVG Version: 6.00 Build 0)  -->
<svg version="1.1" id="Layer_1" xmlns="http://www.w3.org/2000/svg" xmlns:xlink="http://www.w3.org/1999/xlink" x="0px" y="0px"
	 viewBox="0 0 169.5 169.5" style="enable-background:new 0 0 169.5 169.5;" xml:space="preserve">
<style type="text/css">
	.st0{fill:#35404F;}
	.st1{fill:#FFFFFF;}
	.st2{fill:#E0E3DE;}
	.st3{fill:#42505A;}
	.st4{fill:#96D7E0;}
	.st5{fill:#F58460;}
	.st6{fill:#44525C;}
	.st7{fill:#77CDD6;}
	.st8{fill:#FFD77B;}
	.st9{fill:#42515B;}
	.st10{fill:#F58361;}
	.st11{fill:#EBA537;}
	.st12{fill:#CD842A;}
	.st13{fill:#F1594C;}
	.st14{fill:#BD3C31;}
	.st15{fill:#1E2C39;}
	.st16{fill:#F26327;}
	.st17{fill:#F48060;}
	.st18{fill:#FAC1B4;}
	.st19{fill:#F7F5F6;}
	.st20{fill:#94D6DD;}
	.st21{fill:#DBF0F6;}
	.st22{fill:#DAD6DD;}
	.st23{fill:#72CCD4;}
	.st24{fill:none;}
	.st25{opacity:0.46;fill:#F58460;enable-background:new    ;}
</style>
<title>tools1</title>
<g>
	<g id="Layer_1_1_">
		<circle class="st0" cx="84.8" cy="84.8" r="84.8"/>
		<path class="st1" d="M134,118.6c-12.4,0-22.5-10.1-22.4-22.5c0-10.9,7.9-20.3,18.7-22.1c1.3-0.2,2.5-0.3,3.8-0.3
			c12.4,0,22.5,10.1,22.4,22.5c0,10.9-7.9,20.3-18.7,22.1C136.6,118.5,135.3,118.6,134,118.6z"/>
		
			<ellipse transform="matrix(0.9858 -0.1681 0.1681 0.9858 -14.2565 23.9146)" class="st2" cx="134.1" cy="96.1" rx="20.7" ry="20.7"/>
		<path class="st3" d="M134.1,104.4c-4.6,0-8.3-3.7-8.3-8.2c0-4.1,2.9-7.5,6.9-8.2c0.5-0.1,0.9-0.1,1.4-0.1c4.6,0,8.2,3.7,8.2,8.3
			c0,4-2.9,7.4-6.8,8.1C135,104.4,134.5,104.4,134.1,104.4z"/>
		<ellipse transform="matrix(0.9858 -0.1681 0.1681 0.9858 -14.253 23.916)" class="st4" cx="134.1" cy="96.1" rx="6.2" ry="6.2"/>
		
			<ellipse transform="matrix(0.9858 -0.1681 0.1681 0.9858 -14.2567 23.9129)" class="st3" cx="134.1" cy="96.1" rx="3.7" ry="3.7"/>
		<path class="st1" d="M119,127.2c0,4.5-3.7,8.1-8.2,8.1c0,0,0,0,0,0l-52.2-0.4c-4.5,0-8.1-3.7-8.1-8.2c0,0,0,0,0,0l0.7-80.9
			c0-4.5,3.7-8.1,8.2-8.1c0,0,0,0,0,0l52.2,0.4c4.5,0,8.1,3.7,8.1,8.2c0,0,0,0,0,0L119,127.2z"/>
		<path class="st5" d="M102.8,45.8c0,1.2-1,2.2-2.3,2.2l-30.2-0.2c-1.2,0-2.2-1-2.2-2.2l0,0c0-1.2,1-2.2,2.3-2.2l30.2,0.2
			C101.7,43.6,102.7,44.6,102.8,45.8L102.8,45.8z"/>
		<path class="st6" d="M94.8,49.6c0,1.5-1.2,2.7-2.7,2.7c0,0,0,0,0,0l-13.4-0.1c-1.5,0-2.7-1.2-2.7-2.7c0,0,0,0,0,0l0,0
			c0-1.5,1.2-2.7,2.7-2.7c0,0,0,0,0,0l13.4,0.1C93.6,46.9,94.8,48.1,94.8,49.6C94.8,49.6,94.8,49.6,94.8,49.6L94.8,49.6z"/>
		<polygon class="st7" points="73.3,86.4 70.3,80 67.3,86.4 		"/>
		<polygon class="st8" points="82,86.4 76.7,74.1 71.4,86.4 		"/>
		<polygon class="st9" points="92.9,86.4 85.9,65 79,86.4 		"/>
		<polygon class="st10" points="103.5,86.4 96.6,69.4 89.7,86.4 		"/>
		<path class="st11" d="M84.7,98c2.1,0,3.8,1.7,3.8,3.8s-1.7,3.8-3.8,3.8s-3.8-1.7-3.8-3.8l0,0C80.9,99.6,82.6,98,84.7,98 M84.7,95
			c-3.7,0-6.8,3-6.8,6.8c0,3.7,3,6.8,6.8,6.8c3.7,0,6.8-3,6.8-6.8C91.5,98,88.4,95,84.7,95C84.7,95,84.7,95,84.7,95L84.7,95z"/>
		<path class="st12" d="M80.9,101.7c0-2,1.5-3.6,3.5-3.8v-3c-3.7,0.2-6.6,3.4-6.4,7.1c0.2,3.4,2.9,6.2,6.4,6.4v-3
			C82.5,105.3,81,103.7,80.9,101.7z"/>
		<path class="st13" d="M104.6,98.3c2.1,0,3.8,1.7,3.8,3.8s-1.7,3.8-3.8,3.8s-3.8-1.7-3.8-3.8l0,0C100.9,100,102.5,98.3,104.6,98.3
			 M104.6,95.3c-3.7,0-6.8,3-6.8,6.8c0,3.7,3,6.8,6.8,6.8c3.7,0,6.8-3,6.8-6.8C111.4,98.3,108.4,95.3,104.6,95.3
			C104.6,95.3,104.6,95.3,104.6,95.3L104.6,95.3z"/>
		<path class="st14" d="M100.9,102.7h-3c0.3,3.4,3.2,6.1,6.7,6.1l-0.1-3C102.7,105.8,101.2,104.5,100.9,102.7z"/>
		<path class="st14" d="M104.6,98.3c2.1,0,3.8,1.7,3.8,3.7c0,0.2,0,0.5-0.1,0.7h3c0-0.2,0-0.4,0-0.6c0-3.7-3-6.8-6.8-6.8
			c0,0,0,0,0,0h-0.4l0.1,3L104.6,98.3L104.6,98.3z"/>
		<path class="st14" d="M100.9,102.1c0-2,1.5-3.6,3.5-3.8l-0.1-3c-3.6,0.2-6.4,3.2-6.4,6.8c0,0.2,0,0.4,0,0.6h3
			C100.9,102.5,100.8,102.3,100.9,102.1z"/>
		<path class="st3" d="M65.3,98.3c2.1,0,3.8,1.7,3.8,3.8s-1.7,3.8-3.8,3.8s-3.8-1.7-3.8-3.8l0,0C61.5,100,63.2,98.3,65.3,98.3
			 M65.3,95.3c-3.7,0-6.8,3-6.8,6.8c0,3.7,3,6.8,6.8,6.8c3.7,0,6.8-3,6.8-6.8C72.1,98.3,69,95.3,65.3,95.3
			C65.3,95.3,65.3,95.3,65.3,95.3L65.3,95.3z"/>
		<path class="st15" d="M61.6,102.7h-3c0.3,3.5,3.2,6.1,6.7,6.1v-3C63.5,105.8,61.9,104.5,61.6,102.7z"/>
		<rect x="58.6" y="115.4" class="st10" width="53" height="3"/>
		<rect x="58.6" y="122.4" class="st7" width="53" height="3"/>
		<path class="st16" d="M123.5,24.5l-0.4,60.4l40.4,0.3L123.5,24.5z M129.5,47L150.4,77l-21.1-0.2L129.5,47z"/>
		<polygon class="st17" points="31.7,59.8 33,60.4 32.9,123.7 31.6,123.7 		"/>
		<polygon class="st5" points="28,60.2 29.4,59.8 29.3,123.7 28,123.7 		"/>
		
			<rect x="-1.5" y="90.5" transform="matrix(1.570732e-03 -1 1 1.570732e-03 -61.2862 122.0351)" class="st18" width="63.9" height="2.5"/>
		<path class="st19" d="M31.8,59.8c0,0-0.6,1.3-1.1,1.2s-1.2-1.3-1.4-1.2s-0.4,1.1-0.8,1.1c-0.3,0-0.5-0.3-0.5-0.5l2.3-9.2l2.6,9.2
			C33,60.4,32.2,61.5,31.8,59.8z"/>
		<path class="st5" d="M31.3,54.6l-1-3.3l-0.9,3.3C30,55,30.8,55,31.3,54.6z"/>
		<polygon class="st20" points="42.1,63.3 43.3,63.9 43.2,123.2 42,123.2 		"/>
		<polygon class="st20" points="38.7,63.7 39.9,63.3 39.8,123.2 38.6,123.2 		"/>
		
			<rect x="11" y="92.1" transform="matrix(1.396295e-03 -1 1 1.396295e-03 -52.3615 134.0264)" class="st21" width="59.9" height="2.3"/>
		<path class="st22" d="M42.1,63.3c0,0-0.6,1.2-1,1.1s-1.1-1.2-1.3-1.1s-0.4,1-0.7,1.1c-0.2,0-0.4-0.2-0.5-0.5l2.2-8.6l2.5,8.6
			C43.3,63.9,42.6,64.9,42.1,63.3z"/>
		<path class="st3" d="M41.7,58.4l-0.9-3.1L40,58.4C40.5,58.8,41.2,58.8,41.7,58.4z"/>
		
			<rect x="70.7" y="131.1" transform="matrix(0.9147 -0.4042 0.4042 0.9147 -45.6891 57.0926)" class="st23" width="83.5" height="11.3"/>
		<line class="st24" x1="144.6" y1="116.5" x2="148.1" y2="124.6"/>
		<line class="st24" x1="141.5" y1="117.8" x2="145.1" y2="125.9"/>
		<line class="st24" x1="138.5" y1="119.2" x2="142.1" y2="127.3"/>
		<line class="st24" x1="135.5" y1="120.5" x2="139" y2="128.6"/>
		<line class="st24" x1="132.5" y1="121.8" x2="136" y2="129.9"/>
		<line class="st24" x1="129.4" y1="123.1" x2="133" y2="131.2"/>
		<line class="st24" x1="126.4" y1="124.5" x2="130" y2="132.6"/>
		<line class="st24" x1="123.4" y1="125.8" x2="126.9" y2="133.9"/>
		<line class="st24" x1="120.4" y1="127.1" x2="123.9" y2="135.2"/>
		<line class="st24" x1="117.3" y1="128.4" x2="120.9" y2="136.6"/>
		<line class="st24" x1="114.3" y1="129.8" x2="117.9" y2="137.9"/>
		<line class="st24" x1="111.3" y1="131.1" x2="114.9" y2="139.2"/>
		<line class="st24" x1="108.3" y1="132.4" x2="111.8" y2="140.5"/>
		<line class="st24" x1="105.2" y1="133.8" x2="108.8" y2="141.9"/>
		<line class="st24" x1="102.2" y1="135.1" x2="105.8" y2="143.2"/>
		<line class="st24" x1="99.2" y1="136.4" x2="102.8" y2="144.5"/>
		<line class="st24" x1="96.2" y1="137.7" x2="99.7" y2="145.8"/>
		<line class="st24" x1="93.2" y1="139.1" x2="96.7" y2="147.2"/>
		<line class="st24" x1="90.1" y1="140.4" x2="93.7" y2="148.5"/>
		<line class="st24" x1="87.1" y1="141.7" x2="90.7" y2="149.8"/>
		<line class="st24" x1="84.1" y1="143" x2="87.6" y2="151.1"/>
		<line class="st24" x1="81.1" y1="144.4" x2="84.6" y2="152.5"/>
		<line class="st24" x1="78" y1="145.7" x2="81.6" y2="153.8"/>
		<line class="st24" x1="75" y1="147" x2="78.6" y2="155.1"/>
		<path class="st3" d="M52,132.1l7.1,5.3c2.8,2.1,3.5,6.2,1.4,9l-0.3,0.4c-2.1,2.9-6.2,3.5-9.1,1.3c0,0,0,0,0,0l-6.7-5"/>
		<path class="st5" d="M44.4,143.2l-7.4-5.5c-2.9-2.1-3.5-6.2-1.3-9.1l0.3-0.4c2.1-2.9,6.2-3.5,9.1-1.3c0,0,0,0,0,0l7.1,5.3"/>
		<path class="st25" d="M60.2,146.8l0.3-0.4c2.1-2.9,1.5-6.9-1.3-9.1l-7.1-5.3l-7.1-5.3c-2.9-2.1-6.9-1.5-9.1,1.3c0,0,0,0,0,0
			l-0.3,0.4"/>
		<path class="st1" d="M73.1,23.5c-0.2,0-0.4,0.2-0.5,0.4c-1.5,0.6-5.6,2.4-5.6,3.1s4.1,2.3,5.6,2.9c0,0.2,0.2,0.4,0.5,0.4
			c0.2,0,0.4-0.2,0.5-0.4h0.1l23.1-0.3c1,0,1.7-0.8,1.7-1.8c0,0,0,0,0,0v-2.6c0-1-0.8-1.7-1.8-1.7l-23.1,0.3h-0.1
			C73.5,23.6,73.3,23.5,73.1,23.5z"/>
	</g>
</g>
</svg>
